<svg width="107.500000" height="107.500000" viewBox="0 0 107.5 107.5" fill="none" xmlns="http://www.w3.org/2000/svg" xmlns:xlink="http://www.w3.org/1999/xlink">
	<desc>
			Created with Pixso.
	</desc>
	<defs>
		<linearGradient id="paint_linear_62_523_0" x1="53.750000" y1="0.750000" x2="53.750000" y2="106.750000" gradientUnits="userSpaceOnUse">
			<stop stop-color="#5A2FED"/>
			<stop offset="1.000000" stop-color="#C67EFF"/>
		</linearGradient>
	</defs>
	<path id="Vector" d="M53.75 35.3152C49.9321 35.3152 46.8369 32.2202 46.8369 28.4022C46.8369 24.5842 49.9321 21.4891 53.75 21.4891C57.5679 21.4891 60.6631 24.5842 60.6631 28.4022C60.6631 32.2202 57.5679 35.3152 53.75 35.3152ZM39.9238 63.8891L39.9238 49.1413C39.9238 47.919 40.4094 46.7468 41.2737 45.8824C42.1382 45.0182 43.3103 44.5326 44.5327 44.5326L62.9673 44.5326C64.1897 44.5326 65.3618 45.0182 66.2263 45.8824C67.0906 46.7468 67.5762 47.919 67.5762 49.1413L67.5762 63.8891M106.75 0.75L106.75 106.75L0.75 106.75L0.75 0.75L106.75 0.75ZM53.75 67.5761C38.478 67.5761 26.0979 55.1958 26.0979 39.9239C26.0979 24.652 38.478 12.2717 53.75 12.2717C69.022 12.2717 81.4021 24.652 81.4021 39.9239C81.4021 55.1958 69.022 67.5761 53.75 67.5761ZM47.1165 93.2035C45.8201 94.4999 44.0618 95.2283 42.2283 95.2283L19.1848 95.2283C17.3513 95.2283 15.593 94.4999 14.2966 93.2035C13 91.907 12.2717 90.1487 12.2717 88.3152C12.2717 86.4818 13 84.7234 14.2966 83.4269C15.593 82.1305 17.3513 81.4022 19.1848 81.4022L42.2283 81.4022C44.0618 81.4022 45.8201 82.1305 47.1165 83.4269C48.4131 84.7234 49.1414 86.4818 49.1414 88.3152C49.1414 90.1487 48.4131 91.907 47.1165 93.2035ZM65.2717 95.2283C61.4539 95.2283 58.3586 92.1332 58.3586 88.3152C58.3586 84.4973 61.4539 81.4022 65.2717 81.4022C69.0896 81.4022 72.1848 84.4973 72.1848 88.3152C72.1848 92.1332 69.0896 95.2283 65.2717 95.2283ZM88.3152 95.2283C84.4973 95.2283 81.4021 92.1332 81.4021 88.3152C81.4021 84.4973 84.4973 81.4022 88.3152 81.4022C92.1333 81.4022 95.2283 84.4973 95.2283 88.3152C95.2283 92.1332 92.1333 95.2283 88.3152 95.2283Z" stroke="url(#paint_linear_62_523_0)" stroke-opacity="1.000000" stroke-width="1.500000"/>
</svg>
