<svg width="107.500000" height="107.500000" viewBox="0 0 107.5 107.5" fill="none" xmlns="http://www.w3.org/2000/svg" xmlns:xlink="http://www.w3.org/1999/xlink">
	<desc>
			Created with Pixso.
	</desc>
	<defs>
		<linearGradient id="paint_linear_55_323_0" x1="53.750000" y1="0.750000" x2="53.750000" y2="106.750000" gradientUnits="userSpaceOnUse">
			<stop stop-color="#5A2FED"/>
			<stop offset="1.000000" stop-color="#C67EFF"/>
		</linearGradient>
	</defs>
	<path id="Vector" d="M37.6196 93.6739L4.60864 93.6739L4.60864 65.2717L6.10864 65.2717L6.10864 92.9239L5.35864 92.9239L5.35864 92.1739L37.6196 92.1739L37.6196 93.6739ZM46.8369 96.7826L51.4456 96.7826L51.4456 98.2826L46.8369 98.2826L46.8369 96.7826ZM56.0544 96.7826L60.6631 96.7826L60.6631 98.2826L56.0544 98.2826L56.0544 96.7826ZM65.2717 96.7826L79.0979 96.7826L79.0979 98.2826L65.2717 98.2826L65.2717 96.7826ZM83.7065 96.7826L88.3152 96.7826L88.3152 98.2826L83.7065 98.2826L83.7065 96.7826ZM92.9238 96.7826L97.5327 96.7826L97.5327 98.2826L92.9238 98.2826L92.9238 96.7826ZM46.8369 87.5652L51.4456 87.5652L51.4456 89.0652L46.8369 89.0652L46.8369 87.5652ZM56.0544 87.5652L60.6631 87.5652L60.6631 89.0652L56.0544 89.0652L56.0544 87.5652ZM65.2717 87.5652L69.8804 87.5652L69.8804 89.0652L65.2717 89.0652L65.2717 87.5652ZM74.489 87.5652L79.0979 87.5652L79.0979 89.0652L74.489 89.0652L74.489 87.5652ZM83.7065 87.5652L88.3152 87.5652L88.3152 89.0652L83.7065 89.0652L83.7065 87.5652ZM92.9238 87.5652L97.5327 87.5652L97.5327 89.0652L92.9238 89.0652L92.9238 87.5652ZM56.0544 78.3478L102.141 78.3478Q104.361 78.3478 105.93 79.9174Q107.5 81.4869 107.5 83.7065L107.5 102.141Q107.5 104.361 105.93 105.93Q104.361 107.5 102.141 107.5L42.2283 107.5Q40.0085 107.5 38.439 105.93Q36.8696 104.361 36.8696 102.141L36.8696 83.7065Q36.8696 81.4869 38.439 79.9174Q40.0085 78.3478 42.2283 78.3478L51.4456 78.3478L51.4456 79.8478L42.2283 79.8478Q40.6299 79.8478 39.4998 80.978Q38.3696 82.1082 38.3696 83.7065L38.3696 102.141Q38.3696 103.74 39.4998 104.87Q40.6299 106 42.2283 106L102.141 106Q103.74 106 104.87 104.87Q106 103.74 106 102.141L106 83.7065Q106 82.1082 104.87 80.978Q103.74 79.8478 102.141 79.8478L56.0544 79.8478L56.0544 78.3478ZM82.9565 79.0978L82.9565 50.2935Q82.9565 47.5966 84.8635 45.6896Q86.7705 43.7826 89.4673 43.7826Q92.1643 43.7826 94.0713 45.6896Q95.9783 47.5966 95.9783 50.2935L95.9783 66.4239Q95.9783 68.4995 97.4458 69.9671Q98.9136 71.4348 100.989 71.4348Q103.065 71.4348 104.532 69.9671Q106 68.4995 106 66.4239L106 14.5761L106.75 14.5761L106.75 15.3261L61.8152 15.3261L61.8152 13.8261L107.5 13.8261L107.5 66.4239Q107.5 69.1208 105.593 71.0278Q103.686 72.9348 100.989 72.9348Q98.2922 72.9348 96.3853 71.0278Q94.4783 69.1208 94.4783 66.4239L94.4783 50.2935Q94.4783 48.2179 93.0105 46.7503Q91.543 45.2826 89.4673 45.2826Q87.3918 45.2826 85.9241 46.7503Q84.4565 48.2179 84.4565 50.2935L84.4565 79.0978L82.9565 79.0978ZM30.7065 0L40.4521 0L43.3262 8.03253L42.6201 8.28519L42.9089 7.59303L49.5913 10.3813L49.3027 11.0735L48.9792 10.3968L56.6963 6.71031L63.8716 13.9626L60.1875 21.6742L59.511 21.3509L60.2031 21.0621L62.9912 27.7447L62.2991 28.0335L62.5486 27.3261L70.6304 30.1757L70.6304 40.4521L62.5979 43.3262L62.3452 42.62L63.0374 42.9088L60.249 49.5914L59.5569 49.3026L60.2336 48.9793L63.9202 56.6963L56.6677 63.8715L48.9563 60.1876L49.2795 59.5109L49.5684 60.203L42.8857 62.9913L42.5969 62.2991L43.3042 62.5485L40.4548 70.6304L30.1782 70.6304L27.3042 62.5979L28.0105 62.3452L27.7217 63.0374L21.0391 60.2491L21.3279 59.5569L21.6484 60.235L13.9583 63.8712L6.75757 56.6705L10.4429 48.9563L11.1196 49.2795L10.4275 49.5684L7.63916 42.8858L8.3313 42.597L8.08203 43.3043L0 40.4547L0 30.1783L8.03247 27.3043L8.28516 28.0104L7.59302 27.7216L10.3813 21.039L11.0735 21.3278L10.3955 21.6484L6.75928 13.9583L13.96 6.75768L21.6741 10.4428L21.3508 11.1196L21.0581 10.4291L27.7407 7.59473L28.0334 8.28519L27.3267 8.03444L30.1768 0L30.7065 0ZM30.7065 1.5L30.7065 0.75L31.4133 1.00075L28.6301 8.84685L21.3325 11.942L13.792 8.33978L14.1152 7.66304L14.6455 8.19337L8.19336 14.6455L7.66309 14.1152L8.34106 13.7946L11.894 21.3088L8.84985 28.6049L1.00269 31.4127L0.75 30.7065L1.5 30.7065L1.5 39.9239L0.75 39.9239L0.999512 39.2166L8.89502 42.0005L11.9409 49.3002L8.33984 56.8385L7.66309 56.5153L8.19336 55.9849L14.6455 62.4371L14.1152 62.9674L13.7947 62.2894L21.3088 58.7363L28.605 61.7806L31.4126 69.6278L30.7065 69.8804L30.7065 69.1304L39.9238 69.1304L39.9238 69.8804L39.2166 69.631L42.0005 61.7353L49.3003 58.6896L56.8386 62.2906L56.5151 62.9674L55.9878 62.4342L62.4858 56.0051L63.0134 56.5382L62.3367 56.8615L58.7356 49.3233L61.7808 42.0255L69.6277 39.2177L69.8804 39.9239L69.1304 39.9239L69.1304 30.7065L69.8804 30.7065L69.6311 31.4138L61.7354 28.6299L58.6895 21.3302L62.2905 13.7919L62.9673 14.1152L62.4343 14.6427L56.0051 8.14447L56.5383 7.61697L56.8616 8.29373L49.3232 11.8948L42.0254 8.84979L39.2178 1.00267L39.9238 0.75L39.9238 1.5L30.7065 1.5ZM35.3152 45.2365Q31.4253 45.2365 28.6746 42.4859Q25.9238 39.7352 25.9238 35.8452Q25.9238 31.9552 28.6746 29.2046Q31.4253 26.4539 35.3152 26.4539Q39.2053 26.4539 41.9558 29.2046Q44.7065 31.9552 44.7065 35.8452Q44.7065 39.7352 41.9558 42.4859Q39.2053 45.2365 35.3152 45.2365ZM35.3152 43.7365Q38.584 43.7365 40.8953 41.4252Q43.2065 39.1139 43.2065 35.8452Q43.2065 32.5765 40.8953 30.2652Q38.584 27.9539 35.3152 27.9539Q32.0466 27.9539 29.7351 30.2652Q27.4238 32.5765 27.4238 35.8452Q27.4238 39.1139 29.7351 41.4252Q32.0466 43.7365 35.3152 43.7365ZM74.489 23.0435L106.75 23.0435L106.75 24.5435L74.489 24.5435L74.489 23.0435ZM37.5996 92.1939L37.6196 92.1739C38.0396 92.1739 38.3696 92.5039 38.3696 92.9239C38.3696 93.3439 38.0396 93.6739 37.6196 93.6739L37.5996 93.6539L37.5996 92.1939ZM4.62866 65.2917L4.60864 65.2717C4.60864 64.8517 4.93872 64.5217 5.35864 64.5217C5.77881 64.5217 6.10864 64.8517 6.10864 65.2717L6.08862 65.2917L4.62866 65.2917ZM74.509 24.5235L74.489 24.5435C74.0691 24.5435 73.739 24.2135 73.739 23.7935C73.739 23.3735 74.0691 23.0435 74.489 23.0435L74.509 23.0635L74.509 24.5235ZM106.73 23.0635L106.75 23.0435C107.17 23.0435 107.5 23.3735 107.5 23.7935C107.5 24.2135 107.17 24.5435 106.75 24.5435L106.73 24.5235L106.73 23.0635Z" fill="url(#paint_linear_55_323_0)" fill-opacity="1.000000" fill-rule="evenodd"/>
</svg>
