<svg width="123.500244" height="110.242355" viewBox="0 0 123.5 110.242" fill="none" xmlns="http://www.w3.org/2000/svg" xmlns:xlink="http://www.w3.org/1999/xlink">
	<desc>
			Created with Pixso.
	</desc>
	<defs>
		<linearGradient id="paint_linear_55_194_0" x1="61.750244" y1="0.750015" x2="61.750244" y2="109.492348" gradientUnits="userSpaceOnUse">
			<stop stop-color="#5A2FED"/>
			<stop offset="1.000000" stop-color="#C67EFF"/>
		</linearGradient>
	</defs>
	<path id="Vector" d="M49.2373 27.2726L49.2373 56.4473L47.7373 56.4473L47.7373 27.2726L49.2373 27.2726ZM49.2373 61.7518L49.2373 69.7086L47.7373 69.7086L47.7373 61.7518L49.2373 61.7518ZM74.5923 40.9255L51.4746 3.16734Q50.9988 2.38577 50.2014 1.94054Q49.4043 1.49529 48.4912 1.50006Q47.5713 1.49731 46.7747 1.94476Q45.9783 2.39223 45.5054 3.17393L2.02612 74.188Q1.52271 75.0045 1.50122 75.961Q1.47949 76.9176 1.94409 77.7539Q2.40894 78.5902 3.23267 79.077Q4.0564 79.5639 5.01318 79.5676L59.0962 79.5676L59.0962 81.0676L5.00732 81.0676Q3.64355 81.0622 2.46948 80.3684Q1.29541 79.6745 0.633057 78.4825Q-0.0292969 77.2904 0.00146484 75.927Q0.0324707 74.5636 0.746826 73.4048L44.2219 2.39743Q44.8992 1.27786 46.04 0.636978Q47.1809 -0.00387573 48.4834 7.62939e-05Q49.791 -0.00675964 50.9329 0.630936Q52.0747 1.26863 52.7539 2.38411L75.8716 40.1422L74.5923 40.9255ZM94.3254 37.8816L94.3254 43.1861L92.8254 43.1861L92.8254 37.8816L94.3254 37.8816ZM122.307 94.1842Q114.043 88.1388 114.043 75.0131L114.043 64.4041Q114.043 55.926 108.049 49.931Q102.053 43.9361 93.5754 43.9361Q85.0974 43.9361 79.1025 49.931Q73.1074 55.926 73.1074 64.4041L73.1074 75.0131Q73.1077 88.1389 64.8435 94.1842L64.4006 93.5788L65.1506 93.5788L65.1506 98.8833L64.4006 98.8833L64.4006 98.1333L122.75 98.1333L122.75 98.8833L122 98.8833L122 93.5788L122.75 93.5788L122.307 94.1842ZM123.193 92.9735Q123.264 93.0257 123.322 93.0931Q123.379 93.1605 123.419 93.2394Q123.459 93.3183 123.48 93.4043Q123.5 93.4904 123.5 93.5788L123.5 98.8833Q123.5 98.9572 123.486 99.0297Q123.471 99.1021 123.443 99.1703Q123.415 99.2386 123.374 99.3Q123.333 99.3614 123.281 99.4137Q123.228 99.4659 123.167 99.5069Q123.105 99.548 123.037 99.5762Q122.969 99.6045 122.897 99.6189Q122.824 99.6333 122.75 99.6333L64.4006 99.6333Q64.3268 99.6333 64.2543 99.6189Q64.1819 99.6045 64.1136 99.5762Q64.0454 99.548 63.984 99.5069Q63.9225 99.4659 63.8703 99.4137Q63.8181 99.3614 63.777 99.3Q63.736 99.2386 63.7077 99.1703Q63.6794 99.1021 63.665 99.0297Q63.6506 98.9572 63.6506 98.8833L63.6506 93.5788Q63.6506 93.4904 63.6712 93.4043Q63.6918 93.3183 63.7319 93.2394Q63.7719 93.1605 63.8292 93.0931Q63.8866 93.0257 63.958 92.9735Q71.6074 87.3776 71.6074 75.0131L71.6074 64.4041Q71.6074 55.3046 78.0417 48.8703Q84.4761 42.4361 93.5754 42.4361Q102.675 42.4361 109.109 48.8703Q115.543 55.3046 115.543 64.4041L115.543 75.0131Q115.544 87.3777 123.193 92.9735ZM102.282 104.188Q102.282 106.787 99.6172 108.563Q97.0977 110.242 93.5754 110.242Q90.0532 110.242 87.5339 108.563Q84.8687 106.787 84.8687 104.188L86.3687 104.188Q86.3687 105.984 88.3657 107.315Q90.5073 108.742 93.5754 108.742Q96.6436 108.742 98.7852 107.315Q100.782 105.984 100.782 104.188L102.282 104.188ZM75.844 40.1356L75.8716 40.1422C76.0908 40.5004 75.9817 40.9542 75.6235 41.1735C75.2654 41.3928 74.8115 41.2836 74.5923 40.9255L74.5989 40.898L75.844 40.1356ZM59.0762 79.5876L59.0962 79.5676C59.5161 79.5676 59.8462 79.8976 59.8462 80.3176C59.8462 80.7376 59.5161 81.0676 59.0962 81.0676L59.0762 81.0476L59.0762 79.5876ZM92.8455 37.9016L92.8254 37.8816C92.8254 37.4616 93.1555 37.1316 93.5754 37.1316C93.9954 37.1315 94.3254 37.4616 94.3254 37.8815L94.3054 37.9016L92.8455 37.9016Z" fill="url(#paint_linear_55_194_0)" fill-opacity="1.000000" fill-rule="evenodd"/>
</svg>
