<svg width="116.537842" height="109.611969" viewBox="0 0 116.538 109.612" fill="none" xmlns="http://www.w3.org/2000/svg" xmlns:xlink="http://www.w3.org/1999/xlink">
	<desc>
			Created with Pixso.
	</desc>
	<defs>
		<linearGradient id="paint_linear_62_574_0" x1="57.991592" y1="0.750000" x2="57.991592" y2="108.861961" gradientUnits="userSpaceOnUse">
			<stop stop-color="#5A2FED"/>
			<stop offset="1.000000" stop-color="#C67EFF"/>
		</linearGradient>
	</defs>
	<path id="Vector" d="M16.2012 26.4909L26.4976 26.4909L36.7939 41.9355L44.5161 41.9355M14.8997 30.7812C14.0513 32.0511 12.8452 33.0409 11.4341 33.6254C10.0229 34.2099 8.47021 34.3628 6.97241 34.0648C5.47437 33.7669 4.09839 33.0314 3.01831 31.9514C1.93848 30.8715 1.20288 29.4955 0.905029 27.9975C0.606934 26.4995 0.76001 24.9468 1.34448 23.5357C1.92896 22.1247 2.9187 20.9186 4.18848 20.0701C5.4585 19.2215 6.95166 18.7687 8.47876 18.7687C10.5269 18.7687 12.4912 19.5822 13.9395 21.0305C15.3875 22.4787 16.2012 24.4429 16.2012 26.4909C16.2012 28.0183 15.7483 29.5113 14.8997 30.7812ZM14.8997 59.0963C14.0513 60.3662 12.8452 61.356 11.4341 61.9404C10.0229 62.5249 8.47021 62.6778 6.97241 62.3799C5.47437 62.0819 4.09839 61.3464 3.01831 60.2665C1.93848 59.1865 1.20288 57.8105 0.905029 56.3125C0.606934 54.8145 0.76001 53.2618 1.34448 51.8508C1.92896 50.4397 2.9187 49.2336 4.18848 48.3851C5.4585 47.5366 6.95166 47.0837 8.47876 47.0837C10.5269 47.0837 12.4912 47.8973 13.9395 49.3455C15.3875 50.7937 16.2012 52.7579 16.2012 54.806C16.2012 56.3333 15.7483 57.8264 14.8997 59.0963ZM36.7939 13.6205L47.0903 29.065L59.9607 29.065M38.0667 12.7626C37.218 14.0325 36.012 15.0223 34.6008 15.6067C33.1899 16.1912 31.6372 16.3441 30.1392 16.0462C28.6411 15.7482 27.2651 15.0127 26.1853 13.9328C25.1052 12.8528 24.3699 11.4768 24.0718 9.97882C23.7739 8.48083 23.9268 6.92815 24.5112 5.51707C25.0957 4.10602 26.0854 2.89996 27.3555 2.05142C28.6252 1.20288 30.1184 0.75 31.6458 0.75C33.6938 0.75 35.658 1.56358 37.1062 3.0118C38.5544 4.46001 39.3679 6.42421 39.3679 8.47229C39.3679 9.9996 38.915 11.4926 38.0667 12.7626ZM14.8997 78.8307C14.0513 77.5608 12.8452 76.571 11.4341 75.9866C10.0229 75.4021 8.47021 75.2491 6.97241 75.5471C5.47437 75.8451 4.09839 76.5805 3.01831 77.6605C1.93848 78.7405 1.20288 80.1165 0.905029 81.6145C0.606934 83.1125 0.76001 84.6652 1.34448 86.0762C1.92896 87.4873 2.9187 88.6934 4.18848 89.5419C5.4585 90.3904 6.95166 90.8433 8.47876 90.8433C10.5269 90.8433 12.4912 90.0297 13.9395 88.5815C15.3875 87.1333 16.2012 85.1691 16.2012 83.121C16.2012 81.5937 15.7483 80.1006 14.8997 78.8307ZM36.7939 95.9915L47.0903 80.5469L59.9607 80.5469M38.0667 96.8494C37.218 95.5795 36.012 94.5897 34.6008 94.0052C33.1899 93.4207 31.6372 93.2678 30.1392 93.5658C28.6411 93.8638 27.2651 94.5992 26.1853 95.6792C25.1052 96.7592 24.3699 98.1352 24.0718 99.6331C23.7739 101.131 23.9268 102.684 24.5112 104.095C25.0957 105.506 26.0854 106.712 27.3555 107.561C28.6252 108.409 30.1184 108.862 31.6458 108.862C33.6938 108.862 35.658 108.048 37.1062 106.6C38.5544 105.152 39.3679 103.188 39.3679 101.14C39.3679 99.6124 38.915 98.1193 38.0667 96.8494ZM16.2012 83.121L26.4976 83.121L36.7939 67.6765L85.7017 67.6765L85.7017 75.1156L115.227 55.1149L85.7017 33.9301L85.7017 41.9355L59.9607 41.9355M75.4053 54.806L80.5535 54.806M65.1089 54.806L70.2571 54.806M65.1089 29.065L70.2571 29.065M65.1089 80.5469L70.2571 80.5469M54.8125 41.9355L49.6643 41.9355M16.2012 54.806L59.9607 54.806" stroke="url(#paint_linear_62_574_0)" stroke-opacity="1.000000" stroke-width="1.500000"/>
</svg>
