<svg width="84.000000" height="80.095215" viewBox="0 0 84 80.0952" fill="none" xmlns="http://www.w3.org/2000/svg" xmlns:xlink="http://www.w3.org/1999/xlink">
	<desc>
			Created with Pixso.
	</desc>
	<defs>
		<linearGradient id="paint_linear_62_503_0" x1="42.000000" y1="1.000000" x2="42.000000" y2="79.095245" gradientUnits="userSpaceOnUse">
			<stop stop-color="#5A2FED"/>
			<stop offset="1.000000" stop-color="#C67EFF"/>
		</linearGradient>
	</defs>
	<path id="Vector" d="M69.2551 67.3809L69.2551 79.0952L14.7449 79.0952L14.7449 67.3809M26.3809 26.3809L26.3809 16.6191C26.3809 12.4766 28.0266 8.50391 30.9556 5.57471C33.8848 2.64551 37.8577 1 42 1C46.1423 1 50.1152 2.64551 53.0444 5.57471C55.9734 8.50391 57.6191 12.4766 57.6191 16.6191L57.6191 26.3809M34.1904 26.3809L34.1904 16.6191C34.1904 14.5479 35.0132 12.5615 36.4778 11.0969C37.9424 9.63232 39.9287 8.80957 42 8.80957C44.0713 8.80957 46.0576 9.63232 47.5222 11.0969C48.9868 12.5615 49.8096 14.5479 49.8096 16.6191L49.8096 26.3809M48.7754 45.8982C48.093 44.7078 47.1091 43.7183 45.9226 43.0291C44.7363 42.3401 43.3892 41.9756 42.0173 41.9724C40.6453 41.9695 39.2966 42.3279 38.1072 43.012C36.9177 43.6958 35.9297 44.6809 35.2419 45.8684C34.5544 47.0557 34.1917 48.4031 34.1904 49.7751C34.1892 51.1472 34.5496 52.4951 35.2351 53.6838C35.9207 54.8723 36.907 55.8591 38.0952 56.5452L38.0952 69.3333L45.9048 69.3333L45.9048 56.5452C47.0879 55.8621 48.0713 54.8806 48.7563 53.6987C49.4417 52.5166 49.8047 51.1758 49.8096 49.8096C49.8145 48.4375 49.4578 47.0884 48.7754 45.8982ZM51.0396 41.5706L53.7144 38.0952L75.1904 38.0952M51.0396 58.0486L53.7144 61.5239L75.1904 61.5239M79.0952 42C76.9387 42 75.1904 40.2517 75.1904 38.0952C75.1904 35.9387 76.9387 34.1904 79.0952 34.1904C81.2517 34.1904 83 35.9387 83 38.0952C83 40.2517 81.2517 42 79.0952 42ZM79.0952 65.4285C76.9387 65.4285 75.1904 63.6804 75.1904 61.5239C75.1904 59.3672 76.9387 57.6191 79.0952 57.6191C81.2517 57.6191 83 59.3672 83 61.5239C83 63.6804 81.2517 65.4285 79.0952 65.4285ZM32.9604 41.5706L30.2856 38.0952L8.80957 38.0952M32.9604 58.0486L30.2856 61.5239L8.80957 61.5239M4.90479 42C2.74829 42 1 40.2517 1 38.0952C1 35.9387 2.74829 34.1904 4.90479 34.1904C7.06128 34.1904 8.80957 35.9387 8.80957 38.0952C8.80957 40.2517 7.06128 42 4.90479 42ZM4.90479 65.4285C2.74829 65.4285 1 63.6804 1 61.5239C1 59.3672 2.74829 57.6191 4.90479 57.6191C7.06128 57.6191 8.80957 59.3672 8.80957 61.5239C8.80957 63.6804 7.06128 65.4285 4.90479 65.4285ZM14.7449 32.238L14.7449 26.3809L69.2551 26.3809L69.2551 32.238M69.2551 44.0696L69.2551 55.6667M14.7449 44.0696L14.7449 55.6667" stroke="url(#paint_linear_62_503_0)" stroke-opacity="1.000000" stroke-width="2.000000"/>
</svg>
