<svg width="120.000000" height="116.000000" viewBox="0 0 120 116" fill="none" xmlns="http://www.w3.org/2000/svg" xmlns:xlink="http://www.w3.org/1999/xlink">
	<desc>
			Created with Pixso.
	</desc>
	<defs/>
	<path id="Vector" d="M90.1438 24.8313L81.3848 24.8313L81.3848 34.6389C81.3813 38.6049 79.7952 42.4075 76.9749 45.2119C74.1543 48.0164 70.3298 49.5934 66.3411 49.5968L61.1411 49.5968L61.1411 55.9839L86.3862 55.9839L86.3862 51.5702C86.3879 49.9825 87.0225 48.4604 88.1511 47.3372C89.2795 46.214 90.8096 45.5812 92.4065 45.5778L113.973 45.5778C115.571 45.5795 117.103 46.2114 118.233 47.3348C119.363 48.4583 119.998 49.9814 120 51.5702L120 64.4166C119.998 66.0054 119.363 67.5286 118.233 68.652C117.103 69.7754 115.571 70.4072 113.973 70.4091L92.4065 70.4091C90.8096 70.4055 89.2795 69.7729 88.1511 68.6497C87.0225 67.5265 86.3879 66.0043 86.3862 64.4166L86.3862 60.0029L61.1411 60.0029L61.1411 66.3638L66.3411 66.3638C70.3298 66.3672 74.1543 67.9442 76.9749 70.7487C79.7952 73.5531 81.3813 77.3557 81.3848 81.3217L81.3848 91.1687L90.1438 91.1687C91.7417 91.1704 93.2737 91.8024 94.4036 92.9258C95.5334 94.0492 96.1689 95.5724 96.1707 97.1611L96.1707 110.008C96.1689 111.596 95.5334 113.12 94.4036 114.243C93.2737 115.366 91.7417 115.998 90.1438 116L68.5771 116C66.9805 115.996 65.4502 115.364 64.3218 114.241C63.1934 113.117 62.5586 111.595 62.5569 110.008L62.5569 97.1611C62.5586 95.5735 63.1934 94.0513 64.3218 92.9281C65.4502 91.8048 66.9805 91.1721 68.5771 91.1687L77.3428 91.1687L77.3428 81.3217C77.3391 78.4222 76.1787 75.6425 74.1162 73.5928C72.0535 71.5432 69.2571 70.3911 66.3411 70.3894L61.1411 70.3894L61.1411 73.0665C61.1204 74.7894 60.4207 76.4354 59.1921 77.6506C57.9636 78.866 56.3047 79.5535 54.572 79.5654L6.57593 79.5654C4.83618 79.5551 3.17065 78.8638 1.93994 77.6412C0.708984 76.4187 0.012207 74.7634 0 73.0337L0 42.9861C0.010498 41.2552 0.706543 39.5981 1.9375 38.3743C3.16846 37.1503 4.83496 36.4581 6.57593 36.4478L54.572 36.4478C56.3115 36.4598 57.9766 37.1527 59.2061 38.3765C60.4355 39.6002 61.1309 41.2563 61.1411 42.9861L61.1411 45.5778L66.3411 45.5778C69.2578 45.5742 72.054 44.4207 74.1165 42.37C76.179 40.3193 77.3391 37.5389 77.3428 34.6389L77.3428 24.8313L68.5771 24.8313C66.9805 24.8279 65.4502 24.1952 64.3218 23.0719C63.1934 21.9487 62.5586 20.4265 62.5569 18.8389L62.5569 5.99243C62.5586 4.40479 63.1934 2.88257 64.3218 1.7594C65.4502 0.636108 66.9805 0.00354004 68.5771 0L90.1438 0C91.7417 0.00170898 93.2737 0.633667 94.4036 1.75708C95.5334 2.88049 96.1689 4.40369 96.1707 5.99243L96.1707 18.8389C96.1689 20.4276 95.5334 21.9508 94.4036 23.0742C93.2737 24.1976 91.7417 24.8296 90.1438 24.8313ZM68.5771 4.02563C68.0508 4.02563 67.5459 4.23352 67.1736 4.60364C66.8015 4.97363 66.5923 5.47559 66.5923 5.99902L66.5923 18.8455C66.5923 19.3689 66.8015 19.8707 67.1736 20.2408C67.5459 20.6108 68.0508 20.8188 68.5771 20.8188L90.1438 20.8188C90.6702 20.8188 91.175 20.6108 91.5471 20.2408C91.9194 19.8707 92.1287 19.3689 92.1287 18.8455L92.1287 5.99902C92.1287 5.47559 91.9194 4.97363 91.5471 4.60364C91.175 4.23352 90.6702 4.02563 90.1438 4.02563L68.5771 4.02563ZM6.57593 40.4404C5.90503 40.4404 5.26147 40.7051 4.78662 41.176C4.31152 41.6471 4.04395 42.2861 4.04199 42.9531L4.04199 73.0337C4.04395 73.7007 4.31152 74.3397 4.78662 74.8108C5.26147 75.2817 5.90503 75.5464 6.57593 75.5464L54.572 75.5464C55.2417 75.5447 55.8833 75.2793 56.3569 74.8085C56.8306 74.3375 57.0974 73.6996 57.0991 73.0337L57.0991 68.5393C57.0947 68.4854 57.0925 68.431 57.0925 68.3765C57.0925 68.322 57.0947 68.2677 57.0991 68.2137L57.0991 42.9861C57.0974 42.3202 56.8306 41.6821 56.3569 41.2112C55.8833 40.7404 55.2417 40.4751 54.572 40.4734L6.57593 40.4404ZM92.4065 49.5968C91.8801 49.5968 91.3752 49.8047 91.0029 50.1748C90.6309 50.5449 90.4216 51.0469 90.4216 51.5702L90.4216 57.3044C90.5024 57.525 90.5439 57.7581 90.5439 57.9934C90.5439 58.2286 90.5024 58.4618 90.4216 58.6824L90.4216 64.4166C90.4216 64.9399 90.6309 65.4419 91.0029 65.812C91.3752 66.1821 91.8801 66.39 92.4065 66.39L113.973 66.39C114.5 66.39 115.004 66.1821 115.376 65.812C115.749 65.4419 115.958 64.9399 115.958 64.4166L115.958 51.5702C115.958 51.0469 115.749 50.5449 115.376 50.1748C115.004 49.8047 114.5 49.5968 113.973 49.5968L92.4065 49.5968ZM68.5771 95.1943C68.0508 95.1943 67.5459 95.4022 67.1736 95.7723C66.8015 96.1423 66.5923 96.6443 66.5923 97.1677L66.5923 110.014C66.5923 110.538 66.8015 111.04 67.1736 111.41C67.5459 111.78 68.0508 111.988 68.5771 111.988L90.1438 111.988C90.6702 111.988 91.175 111.78 91.5471 111.41C91.9194 111.04 92.1287 110.538 92.1287 110.014L92.1287 97.1677C92.1287 96.6443 91.9194 96.1423 91.5471 95.7723C91.175 95.4022 90.6702 95.1943 90.1438 95.1943L68.5771 95.1943Z" fill="#FFFFFF" fill-opacity="1.000000" fill-rule="evenodd"/>
</svg>
