<svg width="124.000000" height="79.209961" viewBox="0 0 124 79.21" fill="none" xmlns="http://www.w3.org/2000/svg" xmlns:xlink="http://www.w3.org/1999/xlink">
	<desc>
			Created with Pixso.
	</desc>
	<defs>
		<linearGradient id="paint_linear_62_486_0" x1="61.500000" y1="1.000000" x2="61.500000" y2="78.209862" gradientUnits="userSpaceOnUse">
			<stop stop-color="#5A2FED"/>
			<stop offset="1.000000" stop-color="#C67EFF"/>
		</linearGradient>
	</defs>
	<path id="Vector" d="M26.0588 22.4819C25.4512 19.1423 25.0312 15.7712 24.8003 12.3845C24.7554 11.7764 24.8848 11.168 25.1736 10.6309C25.4624 10.0938 25.8984 9.65039 26.4307 9.35254C37.813 3.85522 50.29 1 62.9302 1C75.5706 1 88.0476 3.85522 99.4297 9.35254C99.9619 9.65039 100.398 10.0938 100.687 10.6309C100.976 11.168 101.105 11.7764 101.06 12.3845C100.276 24.2468 97.0637 35.8215 91.6216 46.3909C86.1794 56.9602 78.6238 66.2988 69.4236 73.8274L64.9897 77.4602C64.4128 77.9443 63.6836 78.21 62.9302 78.21C62.177 78.21 61.4478 77.9443 60.8706 77.4602L56.437 73.8274C50.1721 68.7319 44.6545 62.7812 40.0466 56.1497M54.8066 56.4072C57.3127 59.2563 60.0281 61.9143 62.9302 64.3591C77.1165 52.3997 86.4111 35.6426 89.0464 17.2759C72.2319 10.8313 53.6284 10.8313 36.8142 17.2759M21.699 46.7222C20.626 45.6494 20.0232 44.1941 20.0232 42.677L20.0232 36.9561C20.0232 35.4387 20.626 33.9836 21.699 32.9106C22.7717 31.8376 24.2268 31.2351 25.7441 31.2351C27.2615 31.2351 28.7166 31.8376 29.7896 32.9106C30.8623 33.9836 31.4651 35.4387 31.4651 36.9561L31.4651 42.677C31.4651 44.1941 30.8623 45.6494 29.7896 46.7222C28.7166 47.7952 27.2615 48.3977 25.7441 48.3977C24.2268 48.3977 22.7717 47.7952 21.699 46.7222ZM48.6279 28.3745L48.6279 51.2583M40.0466 36.9561L48.6279 36.9561M105.837 36.9561L105.837 42.677C105.837 44.1941 105.234 45.6494 104.162 46.7222C103.089 47.7952 101.634 48.3977 100.116 48.3977M123 28.3745L123 51.2583M114.419 36.9561L123 36.9561M8.5813 28.3745L8.5813 51.2583M0 36.9561L8.5813 36.9561" stroke="url(#paint_linear_62_486_0)" stroke-opacity="1.000000" stroke-width="2.000000"/>
</svg>
