<svg width="85.500000" height="85.280273" viewBox="0 0 85.5 85.2803" fill="none" xmlns="http://www.w3.org/2000/svg" xmlns:xlink="http://www.w3.org/1999/xlink">
	<desc>
			Created with Pixso.
	</desc>
	<defs>
		<linearGradient id="paint_linear_62_553_0" x1="42.750000" y1="0.530273" x2="42.750000" y2="84.530273" gradientUnits="userSpaceOnUse">
			<stop stop-color="#5A2FED"/>
			<stop offset="1.000000" stop-color="#C67EFF"/>
		</linearGradient>
	</defs>
	<path id="Vector" d="M59.1848 58.9651L75.656 75.4363M26.3152 16.9651L29.9673 20.6172L29.9673 35.2258M44.5762 31.5737L44.5762 44.3564L48.2283 48.0085M47.6196 21.5405C48.5205 22.1423 49.2227 22.998 49.6375 23.999C50.052 25 50.1604 26.1016 49.949 27.1643C49.7378 28.2268 49.2161 29.2031 48.4497 29.9692C47.6836 30.7354 46.7075 31.2571 45.6448 31.4685C44.582 31.6799 43.4807 31.5713 42.4797 31.1567C41.4785 30.7422 40.623 30.04 40.021 29.1392C39.4192 28.238 39.0979 27.179 39.0979 26.0955C39.0979 24.6426 39.675 23.2493 40.7024 22.2217C41.7297 21.1943 43.123 20.6172 44.5762 20.6172C45.6597 20.6172 46.7188 20.9385 47.6196 21.5405ZM18.4023 21.5405C19.3032 22.1423 20.0054 22.998 20.4199 23.999C20.8345 25 20.9431 26.1016 20.7317 27.1643C20.5203 28.2268 19.9985 29.2031 19.2324 29.9692C18.4663 30.7354 17.4902 31.2571 16.4275 31.4685C15.3647 31.6799 14.2632 31.5713 13.2622 31.1567C12.2612 30.7422 11.4055 30.04 10.8037 29.1392C10.2017 28.238 9.88037 27.179 9.88037 26.0955C9.88037 24.6426 10.4575 23.2493 11.4849 22.2217C12.5125 21.1943 13.9058 20.6172 15.3586 20.6172C16.4421 20.6172 17.5015 20.9385 18.4023 21.5405ZM33.011 36.1492C33.9119 36.7512 34.614 37.6067 35.0286 38.6077C35.4434 39.6089 35.5518 40.7102 35.3403 41.7729C35.1289 42.8357 34.6072 43.8118 33.8411 44.5779C33.075 45.344 32.0989 45.8657 31.0361 46.0771C29.9734 46.2886 28.8721 46.1802 27.8708 45.7654C26.8699 45.3508 26.0144 44.6487 25.4124 43.7478C24.8103 42.8469 24.489 41.7876 24.489 40.7041C24.489 39.2512 25.0664 37.8579 26.0938 36.8306C27.1211 35.803 28.5144 35.2258 29.9673 35.2258C31.0508 35.2258 32.1101 35.5471 33.011 36.1492ZM24.489 13.313L20.8369 9.66064M19.011 58.9651L15.3586 55.313M42.75 4.18237L39.0979 0.530273M55.5327 55.313L51.8804 51.6606M15.3586 31.5737L15.3586 44.3564L26.3152 55.313L42.75 55.313L50.0544 62.6172L53.7065 62.6172L57.3586 66.2693L57.3586 69.9216L61.011 73.5737L64.6631 73.5737L66.489 75.3999L66.489 79.052L71.9673 84.5303L84.75 84.5303L84.75 73.5737L57.3586 46.1824L57.3586 18.7913L46.4021 7.83472M39.0979 13.313L28.1414 2.35645L19.011 2.35645L0.75 20.6172L0.75 40.7041L11.7065 51.6606" stroke="url(#paint_linear_62_553_0)" stroke-opacity="1.000000" stroke-width="1.500000"/>
</svg>
