<svg width="117.360107" height="23.914551" viewBox="0 0 117.36 23.9146" fill="none" xmlns="http://www.w3.org/2000/svg" xmlns:xlink="http://www.w3.org/1999/xlink">
	<desc>
			Created with Pixso.
	</desc>
	<defs/>
	<path id="Vector" d="M11.7378 5.40576L7.1792 10.0483L4.52637 7.34766L11.7378 0L18.9495 7.34961L16.2983 10.0522L11.7378 5.40576ZM99.574 18.6992C98.7014 18.707 97.8362 18.5347 97.0305 18.1934C96.272 17.874 95.5837 17.4033 95.0066 16.8091C94.4292 16.2148 93.9746 15.5088 93.6694 14.7329C93.3521 13.9331 93.1892 13.0791 93.1892 12.2168L93.1892 12.1772L93.1892 12.1411C93.189 12.1226 93.189 12.104 93.189 12.0854C93.189 10.3794 93.8394 8.73926 95.0042 7.51172C95.5835 6.90576 96.2771 6.42529 97.0435 6.09912C97.877 5.74707 98.772 5.57178 99.6741 5.5835C100.208 5.5791 100.74 5.62793 101.265 5.729C101.713 5.81543 102.152 5.94873 102.573 6.12744C102.956 6.2915 103.32 6.49805 103.658 6.74316C103.988 6.98242 104.298 7.24902 104.585 7.54004L102.844 9.58789C102.399 9.16943 101.9 8.81543 101.361 8.53564C100.831 8.27734 100.25 8.14795 99.6628 8.15771C99.1743 8.15234 98.6902 8.25293 98.2427 8.45312C97.7952 8.65283 97.3945 8.94775 97.0676 9.31738C96.7432 9.68652 96.4893 10.1138 96.3186 10.5776C96.1431 11.0586 96.0535 11.5679 96.0535 12.0811L96.0535 12.1094L96.0535 12.145L96.0535 12.1602C96.0535 12.6768 96.1431 13.1899 96.3186 13.6753C96.4871 14.1406 96.7385 14.5703 97.0601 14.9424C97.3845 15.3169 97.7842 15.6157 98.2322 15.8193C98.6799 16.0225 99.1653 16.1255 99.6555 16.1211C100.28 16.1411 100.899 16.0044 101.459 15.7227C101.992 15.4263 102.486 15.0605 102.926 14.6348L104.668 16.4292C104.361 16.769 104.028 17.085 103.673 17.3735C103.324 17.6543 102.945 17.8945 102.544 18.0894C102.116 18.2944 101.665 18.4458 101.202 18.5405C100.666 18.6499 100.12 18.7031 99.574 18.6992ZM67.843 5.7041L70.3643 5.7041L75.698 18.4766L72.8394 18.4766L71.7009 15.6318L66.4377 15.6318L65.2996 18.4766L62.5076 18.4766L67.843 5.7041ZM27.6084 5.79492L33.3777 5.79492C34.8088 5.79492 35.8916 6.17285 36.6257 6.92822C36.9023 7.20752 37.1204 7.54053 37.2666 7.9082C37.4058 8.25781 37.4773 8.63135 37.4773 9.0083C37.4773 9.02783 37.4771 9.04688 37.4766 9.06641L37.4766 9.10205C37.4768 9.11865 37.4771 9.13477 37.4771 9.15137C37.4771 9.45947 37.4326 9.7666 37.345 10.0615C37.2629 10.3296 37.1438 10.584 36.991 10.8174C36.8486 11.0371 36.6763 11.2358 36.4792 11.4067C36.2869 11.5752 36.0759 11.7212 35.8508 11.8408C36.5 12.0713 37.0837 12.4604 37.5508 12.9741C37.9636 13.4526 38.1699 14.1138 38.1699 14.9575L38.1699 14.9937C38.1707 15.0186 38.1709 15.0435 38.1709 15.0684C38.1709 15.5698 38.0583 16.0649 37.8418 16.5156C37.6216 16.9521 37.2986 17.3257 36.9019 17.604C36.4534 17.9102 35.9541 18.1309 35.4282 18.2554C34.8032 18.4062 34.1626 18.4795 33.5205 18.4727L27.6084 18.4727L27.6084 5.79492ZM41.6072 5.79492L44.3452 5.79492L44.3452 18.4766L41.6072 18.4766L41.6072 5.79492ZM48.4888 5.79492L51.0137 5.79492L56.8496 13.5996L56.8496 5.79492L59.5525 5.79492L59.5525 18.4766L57.2222 18.4766L51.1953 10.415L51.1953 18.4766L48.4888 18.4766L48.4888 5.79492ZM78.6587 5.79492L81.1836 5.79492L87.0159 13.5996L87.0159 5.79492L89.7188 5.79492L89.7188 18.4766L87.3884 18.4766L81.3616 10.415L81.3616 18.4766L78.6587 18.4766L78.6587 5.79492ZM107.9 5.79492L117.267 5.79492L117.267 8.27686L110.593 8.27686L110.593 10.8496L116.47 10.8496L116.47 13.3311L110.603 13.3311L110.603 15.9946L117.36 15.9946L117.36 18.4766L107.905 18.4766L107.9 5.79492ZM32.7993 10.9214C33.2986 10.9458 33.7952 10.8364 34.2397 10.604C34.4131 10.5005 34.5547 10.3501 34.6484 10.1689C34.7302 10.0112 34.7727 9.83545 34.7727 9.65771C34.7727 9.63184 34.7717 9.60596 34.77 9.58008L34.77 9.54443C34.771 9.52588 34.7715 9.50732 34.7715 9.48877C34.7715 9.31934 34.7336 9.15234 34.6611 8.99951C34.5803 8.83008 34.459 8.68408 34.3083 8.5752C34.0007 8.35254 33.5564 8.24072 32.9753 8.24072L30.2761 8.24072L30.2761 10.9214L32.7993 10.9214ZM70.7239 13.1689L69.0667 9.05518L67.4167 13.1689L70.7239 13.1689ZM11.7378 9.21387L14.4277 11.9561L14.4297 11.9561L11.7378 14.7007L9.04785 11.9619L9.04419 11.9561L9.5188 11.4727L9.74854 11.2402L11.7378 9.21387ZM0 11.9575L2.65186 9.25586L5.30396 11.9575L2.65186 14.6597L0 11.9575ZM18.167 11.958L20.8188 9.25635L23.4707 11.958L20.8188 14.6602L18.167 11.958ZM33.5278 16.0303C34.0251 16.0586 34.5203 15.9429 34.9553 15.6963C35.125 15.585 35.2622 15.4297 35.3528 15.2466C35.4321 15.0859 35.4734 14.9092 35.4734 14.73C35.4734 14.7046 35.4724 14.6792 35.4707 14.6533L35.4707 14.6177C35.4712 14.6035 35.4714 14.5898 35.4714 14.5762C35.4714 14.3955 35.4312 14.2168 35.3535 14.0542C35.2698 13.8789 35.1453 13.7275 34.9907 13.6128C34.6719 13.3608 34.1565 13.2349 33.4446 13.2349L30.2761 13.2349L30.2761 16.0303L33.5278 16.0303ZM7.1792 13.8657L11.7378 18.5103L16.2983 13.8638L18.9512 16.563L11.7378 23.9146L4.52246 16.5649L7.1792 13.8657Z" fill="#FFFFFF" fill-opacity="1.000000" fill-rule="evenodd"/>
</svg>
