<svg width="69.000000" height="22.949219" viewBox="0 0 69 22.9492" fill="none" xmlns="http://www.w3.org/2000/svg" xmlns:xlink="http://www.w3.org/1999/xlink">
	<desc>
			Created with Pixso.
	</desc>
	<defs/>
	<path id="Vector" d="M49.1792 17.6924L49.1792 0L52.7434 0L52.7434 17.6924L49.1792 17.6924ZM7.64087 22.9478L0 22.9478L0 5.25537L7.3335 5.25537C10.8977 5.25537 12.9746 7.19336 12.9746 10.2251C12.9746 12.188 11.6409 13.4561 10.7175 13.8784C11.8196 14.375 13.23 15.4927 13.23 17.8545C13.23 21.1587 10.8977 22.9478 7.64087 22.9478ZM24.1011 22.9478L24.1011 15.6919L29.5869 5.25537L25.7156 5.25537L22.3567 12.3867L18.9463 5.25537L15.0747 5.25537L20.562 15.6919L20.562 22.9478L24.1011 22.9478ZM39.6917 22.9478L32.0508 22.9478L32.0508 5.25537L39.3843 5.25537C42.9485 5.25537 45.0251 7.19336 45.0251 10.2251C45.0251 12.188 43.6914 13.4561 42.7683 13.8784C43.8704 14.375 45.2808 15.4927 45.2808 17.8545C45.2808 21.1587 42.9485 22.9478 39.6917 22.9478ZM64.2305 22.9492L64.2305 8.3374L69 8.3374L69 5.25537L55.897 5.25537L55.897 8.3374L60.6665 8.3374L60.6665 22.9492L64.2305 22.9492ZM7.05151 8.3374L3.56421 8.3374L3.56421 12.4126L7.05151 12.4126C8.56396 12.4126 9.4104 11.5923 9.4104 10.374C9.4104 9.15723 8.56396 8.3374 7.05151 8.3374ZM39.1023 8.3374L35.6147 8.3374L35.6147 12.4126L39.1023 12.4126C40.6147 12.4126 41.4612 11.5923 41.4612 10.374C41.4612 9.15723 40.6147 8.3374 39.1023 8.3374ZM7.28198 15.5186L3.56421 15.5186L3.56421 19.8672L7.28198 19.8672C8.89771 19.8672 9.66602 18.874 9.66602 17.6802C9.66602 16.4878 8.89624 15.5186 7.28198 15.5186ZM39.3325 15.5186L35.6147 15.5186L35.6147 19.8672L39.3325 19.8672C40.9485 19.8672 41.7166 18.874 41.7166 17.6802C41.7166 16.4878 40.9485 15.5186 39.3325 15.5186Z" fill="#FFFFFF" fill-opacity="1.000000" fill-rule="evenodd"/>
</svg>
