<svg width="81.229980" height="20.104980" viewBox="0 0 81.23 20.105" fill="none" xmlns="http://www.w3.org/2000/svg" xmlns:xlink="http://www.w3.org/1999/xlink">
	<desc>
			Created with Pixso.
	</desc>
	<defs/>
	<path id="Vector" d="M23.7976 0L7.32397 0L7.32397 5.47656L23.7976 5.47656L23.7976 0ZM29.2854 20.0942L33.5381 20.0942L33.5381 11.7886L41.7319 11.7886L41.7319 8.28418L33.5381 8.28418L33.5381 3.50439L42.6125 3.50439L42.6125 0L29.2854 0L29.2854 20.0942ZM44.7173 3.50439L50.8816 3.50439L50.8816 20.0942L55.0913 20.0942L55.0913 3.50439L61.2554 3.50439L61.2554 0L44.7173 0L44.7173 3.50439ZM67.978 0L63.1455 0L69.3311 10.0527L63.0273 20.105L67.9028 20.105L72.0374 13.2461L72.1985 13.2461L76.333 20.105L81.23 20.105L74.9478 10.0527L81.0796 0L76.2686 0L72.1877 6.84814L72.0266 6.84814L67.978 0ZM5.48755 7.30908L0 7.30908L0 12.7852L5.48755 12.7852L5.48755 7.30908ZM7.31323 7.30908L7.31323 12.7852L18.2993 12.7852L18.2993 7.30908L7.31323 7.30908ZM12.8118 14.6182L7.32397 14.6182L7.32397 20.0942L12.8118 20.0942L12.8118 14.6182Z" fill="#0084A2" fill-opacity="0" fill-rule="evenodd"/>
	<path id="Vector" d="M23.7976 0L7.32397 0L7.32397 5.47656L23.7976 5.47656L23.7976 0ZM29.2854 20.0942L33.5381 20.0942L33.5381 11.7886L41.7319 11.7886L41.7319 8.28418L33.5381 8.28418L33.5381 3.50439L42.6125 3.50439L42.6125 0L29.2854 0L29.2854 20.0942ZM44.7173 3.50439L50.8816 3.50439L50.8816 20.0942L55.0913 20.0942L55.0913 3.50439L61.2554 3.50439L61.2554 0L44.7173 0L44.7173 3.50439ZM67.978 0L63.1455 0L69.3311 10.0527L63.0273 20.105L67.9028 20.105L72.0374 13.2461L72.1985 13.2461L76.333 20.105L81.23 20.105L74.9478 10.0527L81.0796 0L76.2686 0L72.1877 6.84814L72.0266 6.84814L67.978 0ZM5.48755 7.30908L0 7.30908L0 12.7852L5.48755 12.7852L5.48755 7.30908ZM7.31323 7.30908L7.31323 12.7852L18.2993 12.7852L18.2993 7.30908L7.31323 7.30908ZM12.8118 14.6182L7.32397 14.6182L7.32397 20.0942L12.8118 20.0942L12.8118 14.6182Z" fill="#FFFFFF" fill-opacity="1.000000" fill-rule="evenodd"/>
</svg>
