<svg width="83.439941" height="25.095703" viewBox="0 0 83.4399 25.0957" fill="none" xmlns="http://www.w3.org/2000/svg" xmlns:xlink="http://www.w3.org/1999/xlink">
	<desc>
			Created with Pixso.
	</desc>
	<defs/>
	<path id="Vector" d="M30.9807 13.3369L23.9614 13.3369L23.9614 7.17041C23.9614 6.66357 23.5513 6.25244 23.0454 6.25244L20.6692 6.25244L20.6692 23.2036C20.6692 23.7104 21.0793 24.1211 21.585 24.1211L23.9614 24.1211L23.9614 16.2148L30.9844 16.2148L30.9844 23.1997C30.9773 23.7065 31.3804 24.125 31.886 24.1318L34.2766 24.1318L34.2766 7.17041C34.2766 6.66357 33.8662 6.25244 33.3606 6.25244L30.9807 6.25244L30.9807 13.3369ZM44.9207 10.686L44.9207 19.1812C44.9277 19.9536 44.5244 20.6729 43.8596 21.0698C41.9998 22.1475 40.0725 20.7969 40.0725 19.0249L40.0725 11.604C40.0725 11.0972 39.6621 10.686 39.1565 10.686L36.7803 10.686L36.7803 19.3301C36.7874 22.1152 39.0364 24.3696 41.8157 24.3838L43.1665 24.3838C45.9497 24.3765 48.2058 22.1152 48.2129 19.3262L48.2129 11.604C48.2129 11.0972 47.8025 10.686 47.2969 10.686L44.9207 10.686Z" fill="#FFFFFF" fill-opacity="1.000000" fill-rule="nonzero"/>
	<path id="Vector" d="M83.2498 24.1318L83.2498 12.0967C83.2498 11.5898 82.8394 11.1787 82.3337 11.1787L79.9575 11.1787L79.9575 23.207C79.9539 23.7139 80.3606 24.1284 80.8662 24.1318L83.2498 24.1318Z" fill="#676767" fill-opacity="1.000000" fill-rule="nonzero"/>
	<path id="Vector" d="M83.2998 8.771C83.6877 7.83252 83.2429 6.75635 82.3066 6.36768C81.3701 5.979 80.2964 6.4248 79.9084 7.36328C79.5208 8.30176 79.9653 9.37793 80.9019 9.7666C81.8384 10.1553 82.9119 9.70947 83.2998 8.771Z" fill="#676767" fill-opacity="1.000000" fill-rule="nonzero"/>
	<path id="Vector" d="M56.7068 10.6787C53.259 10.6787 50.437 13.1489 50.437 16.604L50.437 18.4717C50.437 21.9272 53.259 24.3833 56.7068 24.3833C60.1545 24.3833 62.9766 21.9272 62.9766 18.4717L62.9766 16.604C62.98 13.1489 60.1582 10.6787 56.7068 10.6787ZM59.6702 18.6953C59.6702 20.3291 58.3369 21.417 56.7034 21.417C55.0696 21.417 53.74 20.3291 53.74 18.6953L53.74 16.3633C53.74 14.7295 55.073 13.6416 56.7034 13.6416C58.3335 13.6416 59.6702 14.7295 59.6702 16.3633L59.6702 18.6953Z" fill="#FFFFFF" fill-opacity="1.000000" fill-rule="nonzero"/>
	<path id="Vector" d="M71.4705 10.6782C70.438 10.6709 69.4194 10.9048 68.4895 11.355L68.4895 7.1875C68.4895 6.68066 68.0793 6.26953 67.5735 6.26953L65.1973 6.26953L65.1973 18.4712C65.1973 21.9268 68.019 24.3828 71.467 24.3828C74.9148 24.3828 77.7368 21.9268 77.7368 18.4712L77.7368 16.6035C77.7402 13.1484 74.9253 10.6782 71.4705 10.6782ZM74.4375 18.6948C74.4375 20.3286 73.1042 21.4165 71.4705 21.4165C69.8403 21.4165 68.5071 20.3286 68.5071 18.6948L68.5071 16.3628C68.5071 14.729 69.8403 13.6411 71.4705 13.6411C73.1008 13.6411 74.4375 14.729 74.4375 16.3628L74.4375 18.6948Z" fill="#676767" fill-opacity="1.000000" fill-rule="nonzero"/>
	<path id="Vector" d="M10.7183 7.71924C10.7183 4.11816 8.96777 1.01758 7.63452 0.0107422C7.63452 0.0107422 7.53198 -0.0458984 7.54272 0.0996094C7.43311 7.05615 3.88623 8.94189 1.93774 11.479C-2.5603 17.3408 1.61938 23.7661 5.88428 24.9536C8.2605 25.6196 5.33252 23.7769 4.9541 19.8892C4.49097 15.1968 10.7183 11.6104 10.7183 7.71924Z" fill="#FFFFFF" fill-opacity="1.000000" fill-rule="nonzero"/>
	<path id="Vector" d="M12.7622 10.0898C12.7339 10.0718 12.6951 10.0576 12.6702 10.104C12.5959 10.979 11.7048 12.8506 10.5732 14.5728C6.73633 20.4062 8.92188 23.2202 10.1523 24.7334C10.8667 25.6089 10.1523 24.7334 11.9346 23.8369C14.1377 22.4971 15.5664 20.1792 15.7786 17.6064C16.1287 13.46 13.6462 10.8481 12.7622 10.0898Z" fill="#676767" fill-opacity="1.000000" fill-rule="nonzero"/>
</svg>
