<svg width="245.050049" height="52.564941" viewBox="0 0 245.05 52.5649" fill="none" xmlns="http://www.w3.org/2000/svg" xmlns:xlink="http://www.w3.org/1999/xlink">
	<desc>
			Created with Pixso.
	</desc>
	<defs/>
	<path id="Vector" d="M169.468 0.0112305C169.879 -0.0249023 170.292 0.0249023 170.683 0.157227C171.074 0.290039 171.433 0.501953 171.738 0.780273C172.05 1.0498 172.305 1.37842 172.49 1.74658C172.676 2.11523 172.786 2.5166 172.816 2.92773C172.822 3.00342 172.825 3.07959 172.825 3.15576C172.825 3.49072 172.771 3.82422 172.665 4.14355C172.535 4.53467 172.33 4.89648 172.06 5.2085C171.798 5.52637 171.472 5.78711 171.104 5.97314C170.737 6.15967 170.334 6.26807 169.922 6.2915C169.514 6.32715 169.103 6.27783 168.715 6.146C168.328 6.01416 167.971 5.80371 167.669 5.52686C167.295 5.21045 167.001 4.80957 166.813 4.35693C167.388 4.06543 167.864 3.61133 168.182 3.05078C168.464 2.55566 168.611 1.99658 168.611 1.4292C168.611 1.35498 168.609 1.28076 168.604 1.20605C168.58 0.88916 168.511 0.577148 168.397 0.280273C168.735 0.127441 169.098 0.0366211 169.468 0.0112305ZM16.4868 7.94971C18.4631 8.0376 20.3406 8.84033 21.7695 10.2085C23.1987 11.5767 24.0828 13.417 24.2571 15.3877C24.2783 15.6279 24.2888 15.8682 24.2888 16.1074C24.2888 17.8325 23.7419 19.52 22.7175 20.9229C21.5505 22.521 19.8435 23.6406 17.9131 24.0742C17.5833 22.1367 16.6057 20.3687 15.1404 19.0591C13.675 17.749 11.8088 16.9751 9.84668 16.8638C9.20117 16.8306 8.55396 16.8667 7.91602 16.9712C7.88818 16.6938 7.87451 16.415 7.87451 16.1367C7.87451 15.9834 7.87866 15.8301 7.88696 15.6772C7.94507 14.606 8.21362 13.5571 8.67749 12.5903C9.14111 11.623 9.79102 10.7573 10.5896 10.0415C11.3884 9.32568 12.3203 8.77441 13.332 8.41895C14.344 8.06348 15.416 7.91113 16.4868 7.97021L16.4868 7.94971ZM121.764 12.146L121.764 41.7329L117.972 41.7329L117.972 36.6431C116.52 38.4722 114.686 39.9624 112.597 41.0093C110.571 41.9834 108.347 42.4785 106.098 42.4561C104.094 42.4819 102.105 42.0913 100.26 41.3081C98.4146 40.5254 96.7517 39.3677 95.3772 37.9082C93.9331 36.457 92.7959 34.73 92.0337 32.8301C91.3096 31.0244 90.938 29.0981 90.938 27.1548C90.938 27.0527 90.939 26.9507 90.9409 26.8486C90.9397 26.7715 90.9392 26.6943 90.9392 26.6177C90.9392 24.6685 91.3206 22.7378 92.0623 20.9336C92.8335 19.0586 93.9783 17.3604 95.427 15.9419C96.8135 14.4814 98.4873 13.3232 100.343 12.5405C102.198 11.7578 104.196 11.3677 106.21 11.3936C108.496 11.3623 110.755 11.8887 112.792 12.9277C114.859 14.0405 116.632 15.6294 117.964 17.5625L117.964 12.146L121.764 12.146ZM84.9873 18.2944L81.969 20.167C79.3479 16.7163 75.7715 14.9893 71.24 14.9868C67.6182 14.9868 64.6096 16.144 62.2144 18.4595C61.0591 19.5337 60.1418 20.8384 59.5215 22.2891C58.9214 23.6924 58.6123 25.2026 58.6123 26.728C58.6123 26.7793 58.6125 26.8306 58.6133 26.8813C58.6133 26.8955 58.6133 26.9097 58.6133 26.9238C58.6133 29.0459 59.1843 31.1294 60.2671 32.9551C61.3386 34.8267 62.9146 36.3599 64.8149 37.3789C66.7981 38.4419 69.0193 38.981 71.269 38.9463Q74.425 38.9463 77.0242 37.7432Q79.8184 36.4497 81.969 33.7656L84.9873 35.7544C83.5579 37.8867 81.5854 39.5996 79.2734 40.7158C76.7195 41.9199 73.9226 42.52 71.0994 42.4688Q66.4834 42.4688 62.8928 40.5498Q61.0161 39.5469 59.4194 38.02C57.9292 36.6421 56.7463 34.9658 55.9478 33.1001C55.179 31.3037 54.783 29.3711 54.783 27.4189C54.783 27.3433 54.7834 27.2676 54.7847 27.1919C54.7847 27.1646 54.7844 27.1377 54.7844 27.1108C54.7844 24.333 55.5356 21.6064 56.9595 19.2202C58.3755 16.7939 60.4363 14.8076 62.9131 13.4814C65.5225 12.0869 68.4426 11.3755 71.4014 11.4146C73.3342 11.4087 75.2561 11.71 77.0945 12.3076C78.7605 12.8223 80.3296 13.6104 81.7375 14.6392C83.0505 15.6318 84.156 16.8721 84.9915 18.29L84.9873 18.2944ZM134.196 12.146L134.196 17.5874C135.541 15.6577 137.32 14.0703 139.389 12.9526C141.417 11.9141 143.668 11.3872 145.947 11.4185C147.961 11.3931 149.96 11.7837 151.817 12.5664C153.674 13.3486 155.349 14.5063 156.738 15.9663C158.185 17.3857 159.33 19.084 160.101 20.959C160.843 22.7651 161.225 24.6978 161.225 26.6489C161.225 26.7236 161.225 26.7983 161.223 26.8735C161.225 26.9727 161.226 27.0718 161.226 27.1704C161.226 29.1177 160.853 31.0479 160.126 32.8564C159.361 34.7568 158.222 36.4834 156.775 37.9331C154.585 40.1792 151.747 41.6826 148.658 42.2305C145.57 42.7788 142.387 42.3442 139.559 40.9883C137.476 39.9268 135.643 38.4326 134.184 36.606L134.184 52.5649L130.396 52.5649L130.396 12.146L134.196 12.146ZM229.604 11.4185C234.163 11.4185 237.946 13.0723 240.953 16.3799C243.591 19.2871 245.05 23.0708 245.05 26.9922C245.05 27.0488 245.05 27.106 245.049 27.1626C245.006 31.1445 243.46 34.9634 240.722 37.8545C237.828 40.9346 234.106 42.4771 229.604 42.4771C225.102 42.4771 221.335 40.9346 218.441 37.8545C215.698 34.9678 214.148 31.1499 214.105 27.1675C214.104 27.1099 214.104 27.0522 214.104 26.9946C214.104 23.0742 215.565 19.2915 218.205 16.3882Q220.271 14.1123 222.837 12.8804Q225.865 11.4268 229.592 11.4268L229.604 11.4185ZM208.282 18.2944L205.26 20.167C202.644 16.7163 199.069 14.9893 194.535 14.9868C190.913 14.9868 187.905 16.144 185.51 18.4595C184.356 19.5347 183.442 20.8398 182.824 22.2905C182.23 23.688 181.924 25.1904 181.924 26.708C181.924 26.7656 181.924 26.8237 181.925 26.8813L181.925 26.9146C181.925 29.04 182.496 31.126 183.579 32.9551C184.652 34.8257 186.227 36.3579 188.127 37.3789C190.11 38.4419 192.331 38.981 194.581 38.9463C198.947 38.9463 202.512 37.2192 205.277 33.7656L208.299 35.7544C206.87 37.8867 204.897 39.5996 202.585 40.7158C200.031 41.9199 197.234 42.52 194.411 42.4688C189.725 42.4688 185.832 40.9858 182.731 38.02C181.241 36.6421 180.058 34.9658 179.259 33.1001C178.49 31.3037 178.094 29.3711 178.094 27.4189C178.094 27.3433 178.095 27.2676 178.096 27.1919C178.096 27.1665 178.096 27.1416 178.096 27.1167C178.096 24.3413 178.846 21.6172 180.267 19.2329C181.683 16.8062 183.744 14.8198 186.221 13.4941C188.83 12.0991 191.75 11.3882 194.709 11.4268C196.642 11.4214 198.563 11.7227 200.402 12.3198C202.068 12.8359 203.636 13.6235 205.045 14.6519C206.358 15.644 207.463 16.8843 208.299 18.3022L208.282 18.2944ZM36.6467 18.3066C36.8118 18.9629 36.8933 19.6318 36.8933 20.2988C36.8933 21.5669 36.5979 22.8276 36.0183 23.9766C35.134 25.7295 33.6477 27.1055 31.8315 27.8516C30.0154 28.5981 27.9915 28.665 26.1299 28.04C24.2686 27.4155 22.6946 26.1411 21.6963 24.4507C23.4478 23.5596 24.845 22.1006 25.6597 20.3125C26.1782 19.1743 26.4414 17.9463 26.4414 16.7119C26.4414 16.0068 26.3555 15.2993 26.1821 14.6064C26.0254 13.979 25.7979 13.3716 25.5042 12.7954C25.9062 12.6255 26.321 12.4873 26.7444 12.3818C27.7852 12.1177 28.8674 12.062 29.9299 12.2168C30.9922 12.3721 32.0134 12.7349 32.9353 13.2856C33.8569 13.8359 34.6611 14.5625 35.3015 15.4243C35.9419 16.2856 36.406 17.2651 36.6672 18.3066L36.6467 18.3066ZM167.81 12.146L171.597 12.146L171.597 41.7329L167.81 41.7329L167.81 12.146ZM145.669 15.0981L145.666 15.0981C144.119 15.063 142.581 15.3506 141.151 15.9414C139.719 16.5332 138.427 17.416 137.355 18.5342C135.103 20.8218 133.977 23.665 133.977 27.0635L133.977 27.0884C133.976 27.1514 133.976 27.2144 133.976 27.2773C133.976 29.3208 134.492 31.3325 135.478 33.1245C136.489 34.9185 137.983 36.3926 139.79 37.3789C141.596 38.4058 143.638 38.9458 145.715 38.9463C147.746 38.9492 149.74 38.4004 151.482 37.3584C153.285 36.2988 154.768 34.772 155.774 32.9385C156.817 31.1265 157.366 29.0718 157.366 26.981C157.366 24.8896 156.817 22.8354 155.774 21.0229C154.775 19.2168 153.308 17.7134 151.527 16.6709C149.751 15.6309 147.728 15.0879 145.669 15.0981ZM106.511 15.0981C104.446 15.0835 102.415 15.626 100.633 16.6689C98.8499 17.7114 97.3813 19.2158 96.3821 21.0229C95.3389 22.8354 94.79 24.8896 94.79 26.981C94.79 29.0718 95.3389 31.1265 96.3821 32.9385C97.3894 34.7734 98.8752 36.3008 100.682 37.3584C102.432 38.4019 104.433 38.9507 106.47 38.9463C108.541 38.9478 110.577 38.4077 112.374 37.3789C114.184 36.3979 115.68 34.9263 116.691 33.1328C117.679 31.3428 118.197 29.332 118.197 27.2886C118.197 27.2246 118.197 27.1606 118.196 27.0967C118.196 23.687 117.07 20.8354 114.818 18.5425C113.748 17.4238 112.457 16.54 111.027 15.9468C109.597 15.354 108.059 15.0649 106.511 15.0981ZM229.604 15.1396C228.071 15.1245 226.552 15.4302 225.145 16.0366C223.737 16.6436 222.472 17.5376 221.43 18.6621C220.324 19.7715 219.452 21.0923 218.867 22.5454C218.308 23.9326 218.021 25.4131 218.021 26.9072C218.021 26.9785 218.022 27.0498 218.023 27.1216C218.023 27.1377 218.023 27.1538 218.023 27.1699C218.023 29.2412 218.557 31.2778 219.574 33.0835C220.557 34.8652 222.013 36.3403 223.783 37.3462C225.558 38.333 227.556 38.8506 229.587 38.8506C231.619 38.8506 233.617 38.333 235.392 37.3462C237.16 36.3403 238.615 34.8647 239.597 33.0835C240.614 31.2778 241.148 29.2412 241.148 27.1699C241.148 27.1538 241.148 27.1377 241.147 27.1216C241.149 27.0527 241.149 26.9844 241.149 26.9155C241.149 25.417 240.86 23.9321 240.297 22.542C239.708 21.0884 238.832 19.7686 237.72 18.6621C236.682 17.5469 235.422 16.6597 234.022 16.0581C232.622 15.4565 231.111 15.1538 229.587 15.1685L229.604 15.1396ZM0.581299 23.8301C1.31152 22.0137 2.66992 20.5195 4.40942 19.6206C6.14893 18.7222 8.15356 18.478 10.0576 18.9336C11.9619 19.3892 13.6392 20.5137 14.7837 22.1025C15.7883 23.4971 16.3237 25.168 16.3237 26.875C16.3237 27.1123 16.3132 27.3506 16.2925 27.5884C14.3489 27.2842 12.3596 27.6504 10.6523 28.6274C8.94482 29.6045 7.62109 31.1338 6.89893 32.9634C6.65845 33.5635 6.48779 34.189 6.39038 34.8281C5.23804 34.5688 4.15527 34.0635 3.2168 33.3467C2.27832 32.6294 1.50586 31.7178 0.952881 30.6743C0.399902 29.6309 0.0791016 28.48 0.0129395 27.3008C0.00439453 27.1475 0 26.9941 0 26.8413C0 25.8164 0.192383 24.7988 0.568848 23.8428L0.581299 23.8301ZM32.8511 40.4761C31.1948 41.5327 29.2131 41.957 27.2693 41.6709C25.3254 41.3843 23.55 40.4072 22.2688 38.9175C20.9939 37.436 20.2932 35.5464 20.2932 33.5923L20.2932 33.562C20.3005 31.5972 21.0159 29.7012 22.3081 28.2212C23.1162 29.0234 24.0745 29.6582 25.1282 30.0898C26.1816 30.5215 27.3101 30.7407 28.4487 30.7358C29.5874 30.731 30.7136 30.5015 31.7634 30.0605C32.8135 29.6201 33.7661 28.9766 34.5669 28.1675C35.3535 29.0498 35.939 30.0928 36.2825 31.2241C36.5161 31.9941 36.634 32.7925 36.634 33.5928C36.634 33.9683 36.6082 34.3447 36.5562 34.7183C36.3928 35.8892 35.9768 37.0107 35.3372 38.0049C34.6975 38.999 33.8491 39.8423 32.8511 40.4761ZM10.686 43.7754C9.17944 42.5151 8.17773 40.7544 7.86401 38.8159C7.7937 38.3818 7.75903 37.9458 7.75903 37.5117C7.75903 36.0039 8.17676 34.5166 8.97803 33.2192C10.0105 31.5488 11.6104 30.3057 13.4844 29.7188C15.3586 29.1318 17.3816 29.2402 19.1824 30.0239C18.5537 31.2544 18.2317 32.6089 18.2317 33.9741C18.2317 34.5503 18.2891 35.1284 18.405 35.6997C18.7954 37.6255 19.8274 39.3618 21.3325 40.6245C21.8276 41.0386 22.3669 41.396 22.9407 41.6914C22.7192 42.064 22.4675 42.418 22.1882 42.75C21.5007 43.5728 20.6575 44.2524 19.7073 44.7495C18.7568 45.2461 17.7178 45.5513 16.6497 45.6465C15.5815 45.7417 14.5049 45.6255 13.4817 45.3042C12.4583 44.9834 11.5083 44.4634 10.686 43.7754Z" fill="#FFFFFF" fill-opacity="1.000000" fill-rule="evenodd"/>
</svg>
