<svg width="69.070068" height="28.918457" viewBox="0 0 69.0701 28.9185" fill="none" xmlns="http://www.w3.org/2000/svg" xmlns:xlink="http://www.w3.org/1999/xlink">
	<desc>
			Created with Pixso.
	</desc>
	<defs/>
	<path id="Vector" d="M20.2629 4.16553L0.462646 4.16553C0.401855 4.16504 0.342041 4.17725 0.286377 4.20117C0.230713 4.2251 0.180664 4.26025 0.139404 4.3042C0.0959473 4.34619 0.0615234 4.396 0.0385742 4.45166C0.0153809 4.50732 0.00415039 4.56689 0.00561523 4.62695L0.00561523 24.3804C0.00488281 24.4409 0.0161133 24.501 0.0388184 24.5566C0.0612793 24.6128 0.0949707 24.6636 0.137451 24.7065C0.179932 24.7495 0.230469 24.7837 0.286377 24.8071C0.342285 24.8301 0.4021 24.8423 0.462646 24.8423L20.2629 24.8423C20.3235 24.8423 20.3833 24.8301 20.439 24.8071C20.4949 24.7837 20.5454 24.7495 20.5879 24.7065C20.6306 24.6636 20.6641 24.6128 20.6868 24.5566C20.7092 24.501 20.7207 24.4409 20.72 24.3804L20.72 4.63232C20.7185 4.51172 20.6702 4.396 20.5847 4.30957C20.4995 4.22363 20.384 4.17383 20.2629 4.1709L20.2629 4.16553ZM13.8152 17.5122C13.8145 17.6333 13.7666 17.749 13.6814 17.835C13.6384 17.8789 13.5874 17.9136 13.531 17.9375C13.4746 17.9614 13.4138 17.9736 13.3525 17.9741L7.36719 17.9741C7.24609 17.9712 7.13062 17.9214 7.04541 17.8354C6.96021 17.749 6.91162 17.6333 6.9104 17.5122L6.9104 11.5176C6.9104 11.4575 6.92212 11.3984 6.94507 11.3428C6.96802 11.2876 7.00171 11.2373 7.04419 11.1948C7.08667 11.1523 7.13696 11.1191 7.19238 11.0962C7.2478 11.0732 7.30737 11.0615 7.36719 11.0615L13.3525 11.0615C13.4131 11.0605 13.4731 11.0718 13.5291 11.0942C13.5852 11.1172 13.6362 11.1504 13.6792 11.1929C13.7224 11.2354 13.7566 11.2856 13.7798 11.3418C13.8032 11.3975 13.8152 11.457 13.8152 11.5176L13.8152 17.5122Z" fill="#FFFFFF" fill-opacity="1.000000" fill-rule="nonzero"/>
	<path id="Vector" d="M61.7083 11.0615L55.7507 11.0615C55.6292 11.0615 55.5122 11.1094 55.4258 11.1948C55.3391 11.2798 55.2898 11.396 55.2883 11.5176L55.2883 17.4902C55.2883 17.5508 55.3003 17.6108 55.3235 17.667C55.3467 17.7227 55.3809 17.7739 55.4238 17.8164C55.4668 17.8594 55.5178 17.8936 55.5737 17.9165C55.6299 17.9399 55.6902 17.9517 55.7507 17.9517L61.7361 17.9517C61.8577 17.9502 61.9741 17.9009 62.0596 17.8145C62.145 17.728 62.1931 17.6118 62.1931 17.4902L62.1931 11.5176C62.1931 11.4551 62.1804 11.3936 62.1558 11.3364C62.1311 11.2788 62.095 11.2275 62.0496 11.1846C62.0042 11.1421 61.9504 11.1089 61.8916 11.0879C61.833 11.0664 61.7705 11.0576 61.7083 11.0615Z" fill="#FFFFFF" fill-opacity="1.000000" fill-rule="nonzero"/>
	<path id="Vector" d="M54.7979 4.16553L48.8125 4.16553C48.752 4.16553 48.6917 4.17725 48.6355 4.20068C48.5796 4.22363 48.5286 4.25781 48.4856 4.30078C48.4426 4.34326 48.4084 4.39453 48.3853 4.4502C48.3621 4.50635 48.3501 4.56641 48.3501 4.62695L48.3501 10.5996C48.3501 10.7222 48.3987 10.8394 48.4856 10.9263C48.5723 11.0127 48.6899 11.0615 48.8125 11.0615L54.7979 11.0615C54.8584 11.0615 54.9182 11.0493 54.9741 11.0259C55.0298 11.0029 55.0806 10.9688 55.123 10.9258C55.1655 10.8828 55.199 10.832 55.2217 10.7759C55.2444 10.7202 55.2556 10.6602 55.2549 10.5996L55.2549 4.63232C55.2563 4.57178 55.2456 4.51123 55.2234 4.45459C55.2009 4.39795 55.1675 4.34619 55.125 4.30273C55.0825 4.25928 55.0315 4.22461 54.9753 4.20117C54.9192 4.17773 54.8589 4.16553 54.7979 4.16553Z" fill="#FFFFFF" fill-opacity="1.000000" fill-rule="nonzero"/>
	<path id="Vector" d="M68.6074 4.16553L62.6221 4.16553C62.5005 4.16699 62.3843 4.21631 62.2986 4.30273C62.2131 4.38916 62.1653 4.50537 62.1653 4.62695L62.1653 10.5996C62.1653 10.7212 62.2131 10.8379 62.2986 10.9243C62.3843 11.0107 62.5005 11.0601 62.6221 11.0615L68.6074 11.0615C68.73 11.0615 68.8477 11.0127 68.9346 10.9263C69.0212 10.8394 69.0701 10.7222 69.0701 10.5996L69.0701 4.63232C69.0708 4.57129 69.0593 4.51074 69.0364 4.4541C69.0134 4.39746 68.9795 4.34619 68.9365 4.30273C68.8936 4.25928 68.8423 4.22461 68.7856 4.20117C68.7292 4.17773 68.6687 4.16553 68.6074 4.16553Z" fill="#FFFFFF" fill-opacity="1.000000" fill-rule="nonzero"/>
	<path id="Vector" d="M54.7979 17.9795L48.8125 17.9795C48.6909 17.9795 48.5742 18.0273 48.4875 18.1128C48.4009 18.1982 48.3516 18.314 48.3501 18.4355L48.3501 24.4082C48.3501 24.5308 48.3987 24.6484 48.4856 24.7349C48.5723 24.8213 48.6899 24.8701 48.8125 24.8701L54.7979 24.8701C54.8584 24.8701 54.9182 24.8579 54.9741 24.835C55.0298 24.8115 55.0806 24.7773 55.123 24.7344C55.1655 24.6914 55.199 24.6406 55.2217 24.5845C55.2444 24.5288 55.2556 24.4688 55.2549 24.4082L55.2549 18.4077C55.2478 18.2915 55.1965 18.1826 55.1116 18.103C55.0266 18.0234 54.9143 17.9795 54.7979 17.9795Z" fill="#FFFFFF" fill-opacity="1.000000" fill-rule="nonzero"/>
	<path id="Vector" d="M68.6074 17.9795L62.6221 17.9795C62.5623 17.9795 62.5027 17.9912 62.4473 18.0142C62.3918 18.0371 62.3416 18.0708 62.2991 18.1133C62.2566 18.1553 62.2229 18.2056 62.2 18.2612C62.177 18.3164 62.1653 18.3755 62.1653 18.4355L62.1653 24.4082C62.1653 24.5298 62.2131 24.6465 62.2986 24.7329C62.3843 24.8193 62.5005 24.8687 62.6221 24.8701L68.6074 24.8701C68.73 24.8701 68.8477 24.8213 68.9346 24.7349C69.0212 24.6484 69.0701 24.5308 69.0701 24.4082L69.0701 18.4077C69.0615 18.291 69.009 18.1821 68.9231 18.1025C68.8374 18.0234 68.7246 17.9795 68.6074 17.9795Z" fill="#FFFFFF" fill-opacity="1.000000" fill-rule="nonzero"/>
	<path id="Vector" d="M44.4324 4.16553L38.4751 4.16553C38.4143 4.16553 38.354 4.17725 38.2981 4.20068C38.2419 4.22363 38.1909 4.25781 38.1479 4.30078C38.105 4.34326 38.0708 4.39453 38.0476 4.4502C38.0244 4.50635 38.0125 4.56641 38.0125 4.62695L38.0125 10.5996C38.0125 10.7222 38.0613 10.8394 38.1479 10.9263C38.2346 11.0127 38.3523 11.0615 38.4751 11.0615L44.4602 11.0615C44.582 11.0601 44.6982 11.0107 44.7837 10.9243C44.8691 10.8379 44.9172 10.7212 44.9172 10.5996L44.9172 4.63232C44.918 4.56934 44.906 4.50684 44.8816 4.44873C44.8574 4.39062 44.8213 4.33789 44.7759 4.29443C44.7305 4.25049 44.6768 4.2168 44.6174 4.19434C44.5583 4.17236 44.4954 4.16211 44.4324 4.16553Z" fill="#FFFFFF" fill-opacity="1.000000" fill-rule="nonzero"/>
	<path id="Vector" d="M44.4324 17.9795L38.4751 17.9795C38.3533 17.9795 38.2366 18.0273 38.1499 18.1128C38.0632 18.1982 38.0139 18.314 38.0125 18.4355L38.0125 24.4082C38.0125 24.5308 38.0613 24.6484 38.1479 24.7349C38.2346 24.8213 38.3523 24.8701 38.4751 24.8701L44.4602 24.8701C44.582 24.8687 44.6982 24.8193 44.7837 24.7329C44.8691 24.6465 44.9172 24.5298 44.9172 24.4082L44.9172 18.4077C44.9136 18.3477 44.8982 18.2891 44.8721 18.2354C44.8457 18.1812 44.8088 18.1328 44.7639 18.0933C44.7188 18.0532 44.6663 18.0229 44.6094 18.0034C44.5525 17.9839 44.4924 17.9756 44.4324 17.9795Z" fill="#FFFFFF" fill-opacity="1.000000" fill-rule="nonzero"/>
	<path id="Vector" d="M37.9846 11.5117C37.9846 11.4517 37.9727 11.3916 37.9492 11.3359C37.926 11.2803 37.8918 11.23 37.8486 11.1875C37.8057 11.145 37.7546 11.1113 37.6987 11.0889C37.6426 11.0664 37.5825 11.0552 37.522 11.0557L31.0798 11.0557L31.0798 4.63232C31.0793 4.51172 31.0312 4.396 30.946 4.31006C30.9033 4.26611 30.8521 4.23145 30.7957 4.20752C30.7393 4.18359 30.6785 4.17139 30.6172 4.1709L24.6321 4.1709C24.5715 4.1709 24.5115 4.18311 24.4558 4.20703C24.4001 4.23096 24.3501 4.26562 24.3088 4.31006C24.2654 4.35156 24.231 4.40186 24.208 4.45703C24.1851 4.5127 24.1738 4.57227 24.175 4.63232L24.175 24.375C24.1743 24.4355 24.1855 24.4951 24.2083 24.5513C24.231 24.6074 24.2644 24.6582 24.3069 24.7012C24.3494 24.7441 24.4001 24.7783 24.4558 24.8013C24.5117 24.8247 24.5715 24.8364 24.6321 24.8364L30.6172 24.8364C30.6782 24.8374 30.7388 24.8257 30.7952 24.8032C30.8516 24.7803 30.9028 24.7461 30.946 24.7031C30.989 24.6602 31.0232 24.6089 31.0461 24.5527C31.0691 24.4961 31.0806 24.436 31.0798 24.375L31.0798 17.9463L37.522 17.9463C37.583 17.9468 37.6436 17.9355 37.7 17.9126C37.7563 17.8896 37.8076 17.8555 37.8508 17.8125C37.8938 17.7695 37.928 17.7183 37.9509 17.6621C37.9739 17.606 37.9854 17.5454 37.9846 17.4844L37.9846 11.5117Z" fill="#FFFFFF" fill-opacity="1.000000" fill-rule="nonzero"/>
</svg>
