<svg width="42.019531" height="42.019531" viewBox="0 0 42.0195 42.0195" fill="none" xmlns="http://www.w3.org/2000/svg" xmlns:xlink="http://www.w3.org/1999/xlink">
	<desc>
			Created with Pixso.
	</desc>
	<defs/>
	<path id="Combined-Shape" d="M21.0098 0C9.40649 0 0 9.40625 0 21.0098C0 32.6133 9.40649 42.0195 21.0098 42.0195C32.6133 42.0195 42.0195 32.6133 42.0195 21.0098C42.0195 9.40625 32.6133 0 21.0098 0ZM23.4409 22.311L23.4409 34.3135L18.4749 34.3135L18.4749 22.3115L15.9939 22.3115L15.9939 18.1758L18.4749 18.1758L18.4749 15.6924C18.4749 12.3184 19.8757 10.3115 23.856 10.3115L27.1694 10.3115L27.1694 14.4482L25.0984 14.4482C23.5488 14.4482 23.4465 15.0264 23.4465 16.105L23.4409 18.1753L27.1929 18.1753L26.7539 22.311L23.4409 22.311Z" clip-rule="evenodd" fill="#FFFFFF" fill-opacity="1.000000" fill-rule="evenodd"/>
</svg>
