<svg width="184.000000" height="39.469238" viewBox="0 0 184 39.4692" fill="none" xmlns="http://www.w3.org/2000/svg" xmlns:xlink="http://www.w3.org/1999/xlink">
	<desc>
			Created with Pixso.
	</desc>
	<defs/>
	<path id="Vector" d="M127.248 0.00878906C127.556 -0.0185547 127.867 0.0185547 128.161 0.118164C128.454 0.217773 128.723 0.376953 128.952 0.585938C129.186 0.788574 129.378 1.03467 129.518 1.31152C129.656 1.58838 129.74 1.88965 129.762 2.19824C129.766 2.25537 129.768 2.3125 129.768 2.36963C129.768 2.62109 129.728 2.87158 129.649 3.11133C129.551 3.40479 129.397 3.67676 129.194 3.91113C128.997 4.1499 128.753 4.34521 128.477 4.48535C128.2 4.625 127.898 4.70654 127.589 4.72412C127.283 4.75098 126.974 4.71387 126.683 4.61475C126.392 4.51611 126.124 4.35742 125.897 4.1499C125.616 3.9126 125.396 3.61133 125.255 3.27148C125.686 3.05273 126.044 2.71143 126.283 2.29102C126.494 1.91895 126.604 1.49902 126.604 1.07324C126.604 1.01758 126.603 0.961426 126.599 0.905762C126.581 0.66748 126.529 0.433105 126.444 0.210449C126.698 0.0957031 126.97 0.0273438 127.248 0.00878906ZM12.3794 5.96924C13.8635 6.03516 15.2729 6.63818 16.3462 7.66504C17.4192 8.69238 18.083 10.0742 18.2139 11.5542C18.2297 11.7344 18.2375 11.9146 18.2375 12.0947C18.2375 13.3896 17.8271 14.6572 17.0579 15.7104C16.1816 16.9102 14.8999 17.751 13.4504 18.0767C13.2026 16.6216 12.4688 15.2939 11.3684 14.3105C10.2683 13.3271 8.86694 12.7461 7.39355 12.6626C6.90894 12.6372 6.42285 12.6646 5.94385 12.7432C5.9231 12.5347 5.9126 12.3257 5.9126 12.1162C5.9126 12.0015 5.91577 11.8862 5.92212 11.7715C5.96582 10.9673 6.16748 10.1797 6.51562 9.45361C6.86377 8.72754 7.35181 8.07715 7.95142 7.53955C8.55103 7.00244 9.25098 6.58838 10.0107 6.32178C10.7705 6.05469 11.5754 5.94043 12.3794 5.98486L12.3794 5.96924ZM91.4285 9.12012L91.4285 31.3359L88.5815 31.3359L88.5815 27.5142C87.491 28.8877 86.1135 30.0063 84.5457 30.7925C83.0237 31.5239 81.354 31.8955 79.6655 31.8789C78.1604 31.8984 76.6677 31.605 75.282 31.0171C73.8962 30.4292 72.6477 29.5601 71.6157 28.4639C70.5312 27.3745 69.6772 26.0776 69.105 24.6509C68.5613 23.2954 68.2822 21.8486 68.2822 20.3896C68.2822 20.313 68.283 20.2363 68.2847 20.1597C68.2837 20.1016 68.2832 20.0439 68.2832 19.9863C68.2832 18.5229 68.5696 17.0728 69.1267 15.7183C69.7056 14.3105 70.5652 13.0352 71.6528 11.9702C72.6941 10.8735 73.9509 10.0039 75.3442 9.4165C76.7375 8.82861 78.2373 8.53564 79.7493 8.55518C81.4661 8.53125 83.1624 8.92676 84.6917 9.70703C86.2439 10.543 87.575 11.7354 88.5754 13.187L88.5754 9.12012L91.4285 9.12012ZM63.8142 13.7363L61.5479 15.1431C59.5796 12.5518 56.8943 11.2549 53.4917 11.2529C50.7722 11.2529 48.5132 12.1221 46.7148 13.8608C45.8472 14.6675 45.1584 15.647 44.6926 16.7363C44.2422 17.79 44.01 18.9238 44.01 20.0693C44.01 20.1079 44.0103 20.146 44.0107 20.1846C44.0107 20.1948 44.0107 20.2056 44.0107 20.2163C44.0107 21.8096 44.4395 23.374 45.2524 24.7451C46.0571 26.1504 47.2405 27.3013 48.6675 28.0669C50.1565 28.8647 51.8245 29.2695 53.5134 29.2432Q55.8833 29.2432 57.835 28.3398Q59.9331 27.3687 61.5479 25.3535L63.8142 26.8467C62.741 28.4482 61.2598 29.7339 59.5237 30.5723C57.6062 31.4766 55.5061 31.9268 53.3862 31.8882C49.8679 31.8882 46.9446 30.7749 44.6162 28.5479C43.4971 27.5132 42.6089 26.2544 42.0093 24.8535C41.4319 23.5049 41.1348 22.0537 41.1348 20.5879C41.1348 20.5312 41.135 20.4741 41.136 20.4175C41.136 20.397 41.1357 20.377 41.1357 20.3569C41.1357 18.271 41.7 16.2236 42.769 14.4321C43.8323 12.6099 45.3796 11.1187 47.2395 10.123C49.1987 9.07568 51.3914 8.5415 53.6128 8.5708C55.0645 8.56641 56.5073 8.79248 57.8877 9.24121C59.1387 9.62793 60.3169 10.2197 61.374 10.9922C62.3599 11.7373 63.1899 12.6685 63.8171 13.7334L63.8142 13.7363ZM100.763 9.12012L100.763 13.2056C101.773 11.7568 103.109 10.5649 104.663 9.72559C106.185 8.9458 107.876 8.55029 109.586 8.57373C111.099 8.55469 112.6 8.84814 113.994 9.43555C115.388 10.0234 116.646 10.8926 117.689 11.9888C118.776 13.0542 119.635 14.3296 120.214 15.7373C120.772 17.0933 121.059 18.5449 121.059 20.0098C121.059 20.0659 121.058 20.1221 121.057 20.1782C121.059 20.2529 121.06 20.3271 121.06 20.4014C121.06 21.8638 120.779 23.313 120.233 24.6709C119.659 26.0977 118.803 27.394 117.717 28.4829C116.073 30.1694 113.942 31.2979 111.623 31.7095C109.303 32.1211 106.914 31.7949 104.79 30.7769C103.226 29.98 101.85 28.8579 100.754 27.4863L100.754 39.4692L97.9104 39.4692L97.9104 9.12012L100.763 9.12012ZM172.402 8.57373Q175.124 8.57373 177.354 9.62012Q179.332 10.5483 180.924 12.2993C182.905 14.4819 184 17.3232 184 20.2676C184 20.3101 184 20.353 183.999 20.3955C183.967 23.3857 182.807 26.2529 180.75 28.4238C178.577 30.7363 175.783 31.8945 172.402 31.8945C169.021 31.8945 166.193 30.7363 164.02 28.4238C161.96 26.2563 160.797 23.3892 160.764 20.3994C160.764 20.356 160.763 20.3125 160.763 20.269C160.763 17.3257 161.861 14.4854 163.843 12.3052C166.097 9.82178 168.947 8.58008 172.393 8.58008L172.402 8.57373ZM156.392 13.7363L154.123 15.1431C152.159 12.5518 149.475 11.2549 146.07 11.2529C143.351 11.2529 141.092 12.1221 139.293 13.8608C138.427 14.668 137.74 15.6479 137.277 16.7373C136.83 17.7866 136.6 18.9146 136.6 20.0537C136.6 20.0977 136.601 20.1411 136.601 20.1846L136.601 20.2095C136.601 21.8052 137.03 23.3716 137.843 24.7451C138.649 26.1494 139.832 27.2998 141.258 28.0669C142.747 28.8647 144.415 29.2695 146.104 29.2432C149.383 29.2432 152.06 27.9468 154.135 25.3535L156.405 26.8467C155.332 28.4482 153.851 29.7339 152.115 30.5723C150.197 31.4766 148.097 31.9268 145.977 31.8882C142.458 31.8882 139.535 30.7749 137.207 28.5479C136.088 27.5132 135.199 26.2544 134.6 24.8535C134.023 23.5049 133.725 22.0537 133.725 20.5879C133.725 20.5312 133.726 20.4741 133.727 20.4175C133.727 20.3984 133.727 20.3799 133.727 20.3608C133.727 18.2773 134.29 16.2319 135.356 14.4414C136.42 12.6191 137.967 11.1279 139.827 10.1323C141.786 9.08496 143.979 8.55078 146.2 8.58008C147.652 8.57568 149.095 8.80225 150.475 9.25049C151.726 9.6377 152.904 10.2295 153.962 11.0015C154.948 11.7466 155.778 12.6777 156.405 13.7427L156.392 13.7363ZM27.5168 13.7456C27.6406 14.2383 27.7021 14.7407 27.7021 15.2417C27.7021 16.1938 27.4802 17.1406 27.0449 18.0034C26.3809 19.3193 25.2649 20.3525 23.9014 20.9131C22.5376 21.4731 21.0178 21.5234 19.6201 21.0547C18.2224 20.5854 17.0405 19.6284 16.291 18.3589C17.606 17.6899 18.6553 16.5947 19.2671 15.252C19.6565 14.3975 19.854 13.4751 19.854 12.5483C19.854 12.019 19.7896 11.4878 19.6594 10.9673C19.5415 10.4961 19.3708 10.04 19.1501 9.60742C19.4521 9.47998 19.7637 9.37646 20.0815 9.29736C20.8628 9.09912 21.6758 9.05664 22.4734 9.17334C23.271 9.28955 24.0378 9.5625 24.73 9.97559C25.4221 10.3887 26.0259 10.9346 26.5068 11.5815C26.9875 12.2285 27.3362 12.9639 27.5322 13.7456L27.5168 13.7456ZM126.003 9.12012L128.846 9.12012L128.846 31.3359L126.003 31.3359L126.003 9.12012ZM109.378 11.3369L109.376 11.3369C108.214 11.3105 107.06 11.5259 105.985 11.9697C104.911 12.4141 103.94 13.0771 103.135 13.9165Q102.118 14.9502 101.508 16.1855Q100.599 18.0288 100.599 20.3208L100.599 20.3398C100.598 20.3872 100.598 20.4346 100.598 20.4819C100.598 22.0161 100.986 23.5264 101.726 24.8721C102.485 26.2192 103.607 27.3257 104.964 28.0669C106.32 28.8379 107.853 29.2432 109.413 29.2432C110.938 29.2456 112.434 28.8335 113.743 28.0513C115.097 27.2559 116.21 26.1089 116.966 24.7324C117.749 23.3716 118.161 21.8291 118.161 20.2588C118.161 18.689 117.749 17.1465 116.966 15.7856C116.216 14.4292 115.114 13.3003 113.777 12.5176C112.443 11.7368 110.924 11.3291 109.378 11.3369ZM79.9761 11.3369C78.4253 11.3257 76.9004 11.7329 75.5618 12.5161C74.2231 13.2988 73.1206 14.4282 72.3701 15.7856C71.5869 17.1465 71.1748 18.689 71.1748 20.2588C71.1748 21.8291 71.5869 23.3716 72.3701 24.7324C73.1265 26.1104 74.2422 27.2573 75.5986 28.0513C76.9128 28.8345 78.415 29.2466 79.9448 29.2432C81.5 29.2446 83.0283 28.8389 84.3782 28.0669C85.7368 27.3301 86.8604 26.2251 87.6191 24.8784C88.3616 23.5342 88.7502 22.0244 88.7502 20.4902C88.7502 20.4419 88.75 20.394 88.7493 20.3457C88.7493 17.7856 87.9038 15.6445 86.2129 13.9229C85.4094 13.083 84.4399 12.4194 83.3662 11.9741C82.2927 11.5288 81.1382 11.312 79.9761 11.3369ZM172.402 11.3677C171.251 11.3564 170.111 11.5859 169.054 12.0415C167.997 12.4971 167.047 13.1685 166.265 14.0127C165.434 14.8457 164.779 15.8374 164.34 16.9287C163.92 17.9702 163.705 19.082 163.705 20.2036C163.705 20.2573 163.706 20.311 163.707 20.3647C163.707 20.3765 163.707 20.3887 163.707 20.4009C163.707 21.9561 164.107 23.4854 164.871 24.8413C165.609 26.1792 166.703 27.2866 168.031 28.042C169.364 28.7827 170.865 29.1719 172.39 29.1719C173.915 29.1719 175.415 28.7827 176.748 28.042C178.076 27.2866 179.168 26.1787 179.906 24.8413C180.669 23.4854 181.07 21.9561 181.07 20.4009L181.07 20.3647C181.071 20.313 181.071 20.2617 181.071 20.21C181.071 19.085 180.854 17.9697 180.431 16.9263C179.989 15.8345 179.331 14.8438 178.496 14.0127C177.717 13.1753 176.771 12.5093 175.719 12.0576C174.668 11.606 173.534 11.3784 172.39 11.3896L172.402 11.3677ZM0.436523 17.8936C0.984619 16.5293 2.00488 15.4077 3.31104 14.7324C4.61694 14.0576 6.12207 13.8745 7.552 14.2168C8.98193 14.5586 10.2412 15.4033 11.1006 16.5962C11.855 17.6431 12.2568 18.8979 12.2568 20.1797C12.2568 20.3579 12.249 20.5366 12.2334 20.7153C10.7742 20.4868 9.28052 20.7617 7.99854 21.4951C6.71631 22.229 5.72241 23.3774 5.18018 24.751C4.99976 25.2017 4.87158 25.6714 4.79834 26.1514C3.93311 25.9565 3.12012 25.5771 2.41528 25.0391C1.71069 24.5005 1.13086 23.8159 0.715576 23.0322C0.300293 22.2485 0.0595703 21.3848 0.00976562 20.499C0.00317383 20.3843 0 20.269 0 20.1543C0 19.3848 0.144531 18.6206 0.427246 17.9028L0.436523 17.8936ZM24.6667 30.3921C23.4231 31.1855 21.9351 31.5039 20.4756 31.2891C19.0161 31.0742 17.6829 30.3403 16.7209 29.2222C15.7637 28.1094 15.2375 26.6904 15.2375 25.2231L15.2375 25.2007C15.2429 23.7256 15.78 22.3018 16.7505 21.1904C17.3572 21.7925 18.0767 22.2695 18.8679 22.5933C19.6589 22.9175 20.5063 23.0825 21.3611 23.0786C22.2161 23.0747 23.062 22.9023 23.8501 22.5718C24.6384 22.2407 25.3538 21.7578 25.9551 21.1499C26.5459 21.8125 26.9854 22.5957 27.2434 23.4453C27.4189 24.0234 27.5073 24.6226 27.5073 25.2236C27.5073 25.5059 27.4878 25.7881 27.4487 26.0688C27.3262 26.9482 27.0139 27.79 26.5334 28.5366C26.0532 29.2832 25.4163 29.916 24.6667 30.3921ZM8.02393 32.8691C6.89258 31.9233 6.14038 30.6011 5.90479 29.1455C5.85205 28.8198 5.82593 28.4922 5.82593 28.166C5.82593 27.0342 6.13965 25.917 6.74146 24.9434C7.51636 23.689 8.71777 22.7559 10.125 22.3149C11.5322 21.8745 13.0513 21.9556 14.4036 22.5439C13.9314 23.4678 13.6897 24.4849 13.6897 25.5103C13.6897 25.9429 13.7327 26.377 13.8196 26.8057C14.1128 28.252 14.8879 29.5552 16.0178 30.5039C16.3896 30.8145 16.7947 31.083 17.2253 31.3047C17.0591 31.5845 16.8701 31.8501 16.6604 32.0996C16.144 32.7173 15.511 33.2275 14.7976 33.6006C14.084 33.9741 13.3037 34.2026 12.5017 34.2744C11.6997 34.3457 10.8914 34.2588 10.1228 34.0176C9.35449 33.7764 8.64136 33.3862 8.02393 32.8691Z" fill="#FFFFFF" fill-opacity="1.000000" fill-rule="evenodd"/>
</svg>
