<svg width="42.019531" height="42.019531" viewBox="0 0 42.0195 42.0195" fill="none" xmlns="http://www.w3.org/2000/svg" xmlns:xlink="http://www.w3.org/1999/xlink">
	<desc>
			Created with Pixso.
	</desc>
	<defs/>
	<path id="Combined-Shape" d="M0 21.0098C0 32.6133 9.40649 42.0195 21.0098 42.0195C32.6133 42.0195 42.0195 32.6133 42.0195 21.0098C42.0195 9.40625 32.6133 0 21.0098 0C9.40649 0 0 9.40625 0 21.0098ZM17.5156 25.2837L17.158 30.6396C17.6833 30.6396 17.9153 30.3994 18.2085 30.1143L20.7322 27.6602L25.9822 31.5391C26.9482 32.0723 27.6458 31.7964 27.8865 30.6421L31.3328 14.4009C31.6858 12.9863 30.7937 12.3447 29.8694 12.7642L9.63159 20.5679C8.25024 21.1221 8.2583 21.8926 9.37988 22.2363L14.5732 23.8569L26.5967 16.2715C27.1643 15.9272 27.6851 16.1123 27.2576 16.4922L17.5151 25.2837L17.5156 25.2837Z" clip-rule="evenodd" fill="#9255F5" fill-opacity="1.000000" fill-rule="evenodd"/>
</svg>
