<svg width="42.019531" height="42.019531" viewBox="0 0 42.0195 42.0195" fill="none" xmlns="http://www.w3.org/2000/svg" xmlns:xlink="http://www.w3.org/1999/xlink">
	<desc>
			Created with Pixso.
	</desc>
	<defs/>
	<path id="Combined-Shape" d="M21.0098 0C9.40649 0 0 9.40625 0 21.0098C0 32.6133 9.40649 42.0195 21.0098 42.0195C32.6133 42.0195 42.0195 32.6133 42.0195 21.0098C42.0195 9.40625 32.6133 0 21.0098 0ZM22.9375 28.3066C22.72 28.5361 22.2954 28.5825 22.2954 28.5825L20.8889 28.5825C20.8889 28.5825 17.7861 28.7651 15.0525 25.9727C12.0718 22.9258 9.43945 16.8804 9.43945 16.8804C9.43945 16.8804 9.2876 16.4839 9.45215 16.293C9.63745 16.0771 10.1428 16.0635 10.1428 16.0635L13.5046 16.042C13.5046 16.042 13.821 16.0928 14.0479 16.2568C14.2354 16.3926 14.3401 16.6445 14.3401 16.6445C14.3401 16.6445 14.8833 17.9932 15.6028 19.2134C17.0081 21.5962 17.6616 22.1167 18.1382 21.8613C18.8335 21.4897 18.625 18.4937 18.625 18.4937C18.625 18.4937 18.6377 17.4067 18.2751 16.9224C17.9944 16.5474 17.4648 16.4375 17.2312 16.4072C17.0415 16.3823 17.3521 15.9507 17.7549 15.7573C18.3604 15.4673 19.4285 15.4502 20.6909 15.4624C21.675 15.4727 21.958 15.5327 22.3425 15.624C23.2346 15.8354 23.2068 16.5127 23.1467 17.9746C23.1287 18.4116 23.1079 18.9189 23.1079 19.5049C23.1079 19.6367 23.104 19.7769 23.0999 19.9214C23.0791 20.6699 23.0552 21.5278 23.5579 21.8467C23.8157 22.0093 24.4453 21.8706 26.021 19.2451C26.7678 18 27.3271 16.5371 27.3271 16.5371C27.3271 16.5371 27.4504 16.2759 27.6401 16.1641C27.8347 16.0503 28.0972 16.085 28.0972 16.085L31.635 16.0635C31.635 16.0635 32.6985 15.9385 32.8701 16.4106C33.0508 16.9043 32.4729 18.0586 31.0273 19.9497C29.6562 21.7446 28.9888 22.4053 29.05 22.9893C29.095 23.4165 29.5286 23.8027 30.3611 24.5605C32.2427 26.2754 32.6328 27.1104 32.6973 27.2144C33.4766 28.4829 31.833 28.5825 31.833 28.5825L28.6899 28.625C28.6899 28.625 28.0154 28.7563 27.127 28.1577C26.6614 27.8442 26.2068 27.3325 25.7734 26.8447C25.1118 26.1001 24.5007 25.4126 23.9792 25.5747C23.1033 25.8481 23.1299 27.7002 23.1299 27.7002C23.1299 27.7002 23.1367 28.0967 22.9375 28.3066Z" clip-rule="evenodd" fill="#FFFFFF" fill-opacity="1.000000" fill-rule="evenodd"/>
</svg>
