<svg width="42.019531" height="42.019531" viewBox="0 0 42.0195 42.0195" fill="none" xmlns="http://www.w3.org/2000/svg" xmlns:xlink="http://www.w3.org/1999/xlink">
	<desc>
			Created with Pixso.
	</desc>
	<defs/>
	<path id="Combined-Shape" d="M21.0098 0C9.40649 0 0 9.40625 0 21.0098C0 32.6133 9.40649 42.0195 21.0098 42.0195C32.6133 42.0195 42.0195 32.6133 42.0195 21.0098C42.0195 9.40625 32.6133 0 21.0098 0ZM29.7654 13.7871C30.7295 14.0518 31.489 14.8315 31.7468 15.8213C32.2151 17.6157 32.2151 21.3599 32.2151 21.3599C32.2151 21.3599 32.2151 25.104 31.7468 26.8984C31.489 27.8887 30.7295 28.6685 29.7654 28.9331C28.0178 29.4136 21.0098 29.4136 21.0098 29.4136C21.0098 29.4136 14.0017 29.4136 12.2542 28.9331C11.2898 28.6685 10.5305 27.8887 10.2727 26.8984C9.80469 25.104 9.80469 21.3599 9.80469 21.3599C9.80469 21.3599 9.80469 17.6157 10.2727 15.8213C10.5305 14.8315 11.2898 14.0518 12.2542 13.7871C14.0017 13.3062 21.0098 13.3062 21.0098 13.3062C21.0098 13.3062 28.0178 13.3062 29.7654 13.7871Z" clip-rule="evenodd" fill="#FFFFFF" fill-opacity="1.000000" fill-rule="evenodd"/>
	<path id="Fill-2" d="M18.9087 25.2124L18.9087 18.209L24.5112 21.7109L18.9087 25.2124Z" fill="#FFFFFF" fill-opacity="1.000000" fill-rule="nonzero"/>
</svg>
